<?xml version="1.0" encoding="UTF-8" standalone="no"?>
<!-- Created with Inkscape (http://www.inkscape.org/) -->

<svg
   xmlns:dc="http://purl.org/dc/elements/1.1/"
   xmlns:cc="http://creativecommons.org/ns#"
   xmlns:rdf="http://www.w3.org/1999/02/22-rdf-syntax-ns#"
   xmlns:svg="http://www.w3.org/2000/svg"
   xmlns="http://www.w3.org/2000/svg"
   xmlns:sodipodi="http://sodipodi.sourceforge.net/DTD/sodipodi-0.dtd"
   xmlns:inkscape="http://www.inkscape.org/namespaces/inkscape"
   width="513"
   height="434"
   viewBox="0 0 135.73211 114.82945"
   version="1.1"
   id="svg8"
   sodipodi:docname="family.svg"
   inkscape:version="0.92.2 5c3e80d, 2017-08-06">
  <defs
     id="defs2" />
  <sodipodi:namedview
     id="base"
     pagecolor="#ffffff"
     bordercolor="#666666"
     borderopacity="1.0"
     inkscape:pageopacity="0.0"
     inkscape:pageshadow="2"
     inkscape:zoom="0.98994949"
     inkscape:cx="371.7365"
     inkscape:cy="221.0772"
     inkscape:document-units="mm"
     inkscape:current-layer="layer1"
     showgrid="false"
     units="px"
     inkscape:window-width="1600"
     inkscape:window-height="844"
     inkscape:window-x="0"
     inkscape:window-y="0"
     inkscape:window-maximized="1" />
  <metadata
     id="metadata5">
    <rdf:RDF>
      <cc:Work
         rdf:about="">
        <dc:format>image/svg+xml</dc:format>
        <dc:type
           rdf:resource="http://purl.org/dc/dcmitype/StillImage" />
        <dc:title></dc:title>
      </cc:Work>
    </rdf:RDF>
  </metadata>
  <g
     inkscape:label="Layer 1"
     inkscape:groupmode="layer"
     id="layer1"
     transform="translate(0,-182.16987)">
    <g
       id="g3796"
       transform="matrix(0.26458385,0,0,0.26458385,0.22708168,171.73947)"
       style="fill:#353895;fill-opacity:1">
      <g
         id="g3703"
         style="fill:#353895;fill-opacity:1">
        <g
           id="g3701"
           style="fill:#353895;fill-opacity:1">
          <path
             id="path3699"
             d="m 511.372,166.69 c -0.111,-22.079 -18.163,-40.041 -40.243,-40.041 -7.842,0 -76.891,0 -85.131,0 -17.087,0 -32.761,9.333 -40.903,24.355 l -5.914,10.912 c 2.274,5.396 3.534,11.321 3.534,17.534 0,9.91 -3.208,19.081 -8.629,26.546 6.148,0.52 11.953,2.278 17.164,5.029 l 23.747,-43.818 c 0.6,-1.107 1.875,-1.666 3.096,-1.356 1.221,0.309 2.076,1.408 2.076,2.667 l 0.007,283.097 c 0,11.27 9.136,20.406 20.406,20.406 11.27,0 20.406,-9.136 20.406,-20.406 V 288.507 h 8.81 v 163.111 c 0,11.27 9.136,20.406 20.406,20.406 11.27,0 20.406,-9.136 20.406,-20.406 0,-263.519 -0.362,-123.922 -0.37,-284.664 0,-1.947 1.565,-3.533 3.512,-3.559 1.947,-0.026 3.554,1.518 3.605,3.465 l 0.628,124.932 c 0.048,9.363 7.65,16.92 17.003,16.92 0.029,0 0.059,0 0.088,0 9.391,-0.047 16.967,-7.699 16.92,-17.091 z"
             inkscape:connector-curvature="0"
             style="fill:#353895;fill-opacity:1" />
        </g>
      </g>
      <g
         id="g3709"
         style="fill:#353895;fill-opacity:1">
        <g
           id="g3707"
           style="fill:#353895;fill-opacity:1">
          <path
             id="path3705"
             d="m 359.307,250.866 c -0.08,-15.934 -13.11,-28.898 -29.044,-28.898 h -65.886 c -15.934,0 -28.963,12.964 -29.043,28.897 -0.024,4.959 -0.001,0.737 -0.14,24.102 l -13.532,-2.781 c 0,0 -30.282,-83.345 -41.12,-114.881 -7.963,-23.173 -21.316,-34.922 -39.687,-34.922 -25.473,0 -33.446,0 -59.47,0 -18.37,0 -31.723,11.749 -39.687,34.922 C 29.357,193.219 1.33,269.897 1.049,270.668 c -3.256,8.902 1.323,18.758 10.226,22.014 8.905,3.255 18.761,-1.326 22.014,-10.226 0.238,-0.653 20.365,-55.717 34.11,-94.633 -0.923,7.541 1.99,-8.33 -24.38,127.817 -1.143,5.904 3.408,11.359 9.361,11.359 3.693,0 8.139,0 13.097,0 v 124.505 c 0,11.375 9.221,20.597 20.597,20.597 11.376,0 20.597,-9.221 20.597,-20.597 V 326.999 c 2.961,0 5.932,0 8.894,0 v 124.505 c 0,11.375 9.221,20.597 20.597,20.597 11.376,0 20.597,-9.221 20.597,-20.597 V 326.999 c 4.959,0 9.406,0 13.097,0 5.985,0 10.504,-5.463 9.361,-11.359 -26.372,-136.161 -23.457,-120.274 -24.38,-127.816 13.747,38.916 33.872,93.979 34.111,94.632 2.467,6.747 8.726,10.998 15.488,11.25 13.752,2.826 23.842,4.899 40.469,8.316 7.581,1.557 14.697,-4.214 14.742,-11.949 0,0 0.204,-34.47 0.228,-38.56 0.007,-1.307 1.069,-2.362 2.375,-2.359 1.306,0.003 2.363,1.063 2.363,2.37 10e-4,33.078 0.006,192.015 0.006,205.775 0,8.134 6.594,14.726 14.728,14.726 8.134,0 14.728,-6.594 14.728,-14.726 0,-14.572 0,-102.909 0,-117.717 h 6.359 c 0,14.809 0,103.145 0,117.717 0,8.134 6.594,14.726 14.728,14.726 8.134,0 14.728,-6.594 14.728,-14.726 0,-84.649 -0.208,-184.187 -0.257,-206.291 -0.003,-1.414 1.14,-2.564 2.554,-2.569 1.414,-0.005 2.566,1.135 2.573,2.55 l 0.452,90.162 c 0.034,6.758 5.521,12.211 12.271,12.211 0.021,0 0.042,-0.001 0.063,-0.001 6.761,-0.033 12.216,-5.529 12.209,-12.286 0,-0.017 0.002,-0.033 0.002,-0.049 -0.092,-18.738 -0.366,-73.313 -0.45,-90.16 z"
             inkscape:connector-curvature="0"
             style="fill:#353895;fill-opacity:1" />
        </g>
      </g>
      <g
         id="g3715"
         style="fill:#353895;fill-opacity:1">
        <g
           id="g3713"
           style="fill:#353895;fill-opacity:1">
          <circle
             id="circle3711"
             r="35.243999"
             cy="76.039001"
             cx="425.62601"
             style="fill:#353895;fill-opacity:1" />
        </g>
      </g>
      <g
         id="g3721"
         style="fill:#353895;fill-opacity:1">
        <g
           id="g3719"
           style="fill:#353895;fill-opacity:1">
          <circle
             id="circle3717"
             r="31.999001"
             cy="179.45599"
             cx="297.42401"
             style="fill:#353895;fill-opacity:1" />
        </g>
      </g>
      <g
         id="g3727"
         style="fill:#353895;fill-opacity:1">
        <g
           id="g3725"
           style="fill:#353895;fill-opacity:1">
          <path
             id="path3723"
             d="m 111.121,39.898 c -19.647,0 -35.573,15.923 -35.573,35.573 0,19.569 15.855,35.573 35.573,35.573 19.71,0 35.573,-16.023 35.573,-35.573 0,-19.588 -15.904,-35.573 -35.573,-35.573 z"
             inkscape:connector-curvature="0"
             style="fill:#353895;fill-opacity:1" />
        </g>
      </g>
      <g
         id="g3729"
         style="fill:#353895;fill-opacity:1" />
      <g
         id="g3731"
         style="fill:#353895;fill-opacity:1" />
      <g
         id="g3733"
         style="fill:#353895;fill-opacity:1" />
      <g
         id="g3735"
         style="fill:#353895;fill-opacity:1" />
      <g
         id="g3737"
         style="fill:#353895;fill-opacity:1" />
      <g
         id="g3739"
         style="fill:#353895;fill-opacity:1" />
      <g
         id="g3741"
         style="fill:#353895;fill-opacity:1" />
      <g
         id="g3743"
         style="fill:#353895;fill-opacity:1" />
      <g
         id="g3745"
         style="fill:#353895;fill-opacity:1" />
      <g
         id="g3747"
         style="fill:#353895;fill-opacity:1" />
      <g
         id="g3749"
         style="fill:#353895;fill-opacity:1" />
      <g
         id="g3751"
         style="fill:#353895;fill-opacity:1" />
      <g
         id="g3753"
         style="fill:#353895;fill-opacity:1" />
      <g
         id="g3755"
         style="fill:#353895;fill-opacity:1" />
      <g
         id="g3757"
         style="fill:#353895;fill-opacity:1" />
    </g>
  </g>
</svg>
