<svg xmlns="http://www.w3.org/2000/svg" xmlns:xlink="http://www.w3.org/1999/xlink" width="1603" height="326" viewBox="0 0 1603 326">
  <metadata><?xpacket begin="﻿" id="W5M0MpCehiHzreSzNTczkc9d"?>
<x:xmpmeta xmlns:x="adobe:ns:meta/" x:xmptk="Adobe XMP Core 5.6-c138 79.159824, 2016/09/14-01:09:01        ">
   <rdf:RDF xmlns:rdf="http://www.w3.org/1999/02/22-rdf-syntax-ns#">
      <rdf:Description rdf:about=""
            xmlns:xmp="http://ns.adobe.com/xap/1.0/">
         <xmp:CreatorTool>Adobe Photoshop CC 2017 (Windows)</xmp:CreatorTool>
      </rdf:Description>
   </rdf:RDF>
</x:xmpmeta>
                                                                                                    
                                                                                                    
                                                                                                    
                                                                                                    
                                                                                                    
                                                                                                    
                                                                                                    
                                                                                                    
                                                                                                    
                                                                                                    
                                                                                                    
                                                                                                    
                                                                                                    
                                                                                                    
                                                                                                    
                                                                                                    
                                                                                                    
                                                                                                    
                                                                                                    
                                                                                                    
                           
<?xpacket end="w"?></metadata>
<defs>
    <style>
      .cls-1 {
        filter: url(#filter);
      }

      .cls-2 {
        fill: #353895;
      }

      .cls-2, .cls-3, .cls-4, .cls-5 {
        fill-rule: evenodd;
      }

      .cls-3 {
        fill: #9b1a39;
      }

      .cls-4 {
        fill: #fff;
      }

      .cls-5 {
        fill: none;
        stroke: #fff;
        stroke-width: 3px;
      }
    </style>
    <filter id="filter" filterUnits="userSpaceOnUse">
      <feFlood result="flood" flood-color="#fff"/>
      <feComposite result="composite" operator="in" in2="SourceGraphic"/>
      <feBlend result="blend" in2="SourceGraphic"/>
    </filter>
  </defs>
  <g class="cls-1">
    <path id="Shape_1_copy_2" data-name="Shape 1 copy 2" class="cls-2" d="M33,326H246L281,89,142.984,67.389c-3.9,6.09-12.71,9.3-23.984,7.611-16.16-2.374-18.853-11.261-21.592-14.748l-0.871-.136A12.936,12.936,0,0,1,93,61c-2.024.025-10.034,0.308-12,0-3.585-.967-3.934-2.687-5.034-4.1l-8.982-1.406A4.782,4.782,0,0,1,62,59c-1.8-.105-10.27-0.729-12-1a4.931,4.931,0,0,1-4.03-5.8l-8.091-1.267A33.393,33.393,0,0,1,19,54,28.511,28.511,0,0,1,3.049,45.477L0,45ZM99.034,197.964A14,14,0,1,1,87.989,191.6a14.017,14.017,0,0,1,11.046,6.361h0Zm0,0,77.042-44.835a22.929,22.929,0,1,1,10.856-2.724S183.983,153.129,176.076,153.129ZM69.279,257.7a4.155,4.155,0,0,1-8.286-.411c-0.012-1.238.007-2.464,0.05-3.7a32.811,32.811,0,0,1,1.5-8.659,37.043,37.043,0,0,1,2.849-6.89,39.693,39.693,0,0,1,12.045-13.5,18.1,18.1,0,0,1,3.733-2.188,15.715,15.715,0,0,1,14.991,1.484,36.683,36.683,0,0,1,3.241,2.365,39.766,39.766,0,0,1,6.5,6.682,36.7,36.7,0,0,1,6.883,14.75,45.371,45.371,0,0,1,.855,9.659,4.155,4.155,0,0,1-8.286.411,29.788,29.788,0,0,0-4.113-13.1v4.491l9.245,37.35c0.416,1.612.69,3.277-2.452,3.277h-7.681L98.925,320.9c-0.055,1.14.075,3.5,0.075,5.1H90a46.782,46.782,0,0,1-.761-5.054l-1.727-31.233H86.994L85.569,320.9c-0.043,1.3-.246,3.509-0.246,5.072C84.085,326,81.8,326,81,326H76c0-1.951-.058-3.94-0.12-5.054l-1.725-31.233H66.639a2.747,2.747,0,0,1-2.693-3.284l9.4-37.492v-4.26c-2.549,3.858-3.586,8.492-4.063,13.019h0Zm0,0M113.3,288.223l-3.19-13.811-0.432-8.567a9.115,9.115,0,0,0,6.894-8.775,47.847,47.847,0,0,0-1.124-11.384,42.615,42.615,0,0,0-4.109-10.708,41.174,41.174,0,0,0-3.787-5.708,42.757,42.757,0,0,1-.142-4.709V184.548a74.569,74.569,0,0,0-4.6,13.612c-2.493-6.079-7.84-9.158-15.233-10.379a98.1,98.1,0,0,1,5.2-15.122,74.339,74.339,0,0,1,9.739-15.976,65.406,65.406,0,0,1,8.6-8.757,53.859,53.859,0,0,1,4.776-3.565,36.816,36.816,0,0,1,4.4-2.445c15.723-7.472,28.205,4.666,28.515,4.94q5.032,4.47,10.064,8.94a70.247,70.247,0,0,0-21.3,24.056,63.442,63.442,0,0,0-6.689,19.645,81.385,81.385,0,0,0-.945,13.992,11.92,11.92,0,0,0,11.882,11.686,11.687,11.687,0,0,0,2.821-.363s-8.82,32.178-9.321,34.233c-0.675,2.781-.907,8.567,5.536,8.567h10.693l0.818,14.446L150.9,317.329c-0.093,2.049-.491,5.5-0.9,8.671h-7c-2.674,0-6.471,0-8,0-0.324-2.769-.6-6.913-0.687-8.6l-2.984-59.092-2.464,59.018c-0.1,2.246-.532,4.665-0.865,8.674h-7c-2.285,0-6.482,0-8,0,0-1.408-.614-6.524-0.719-8.6l-1.3-25.669c3.381-.265,2.315-3.508,2.315-3.508h0Zm0,0,28.822-23.148a4.111,4.111,0,0,1-3.178-1.5,3.9,3.9,0,0,1-.86-3.426l15.863-57.53v-9.108a41.428,41.428,0,0,0-5.016,11.7,62.467,62.467,0,0,0-1.642,9.631,6.809,6.809,0,0,1-13.578-.676c-0.016-2.185,0-4.356.106-6.542a58.218,58.218,0,0,1,1.224-8.941A59.569,59.569,0,0,1,141.7,181.2a65.337,65.337,0,0,1,18.566-20.426,36.318,36.318,0,0,1,5.938-3.624c0.186-.085.375-0.161,0.569-0.234a23.017,23.017,0,0,1,19.868-.1,27.054,27.054,0,0,1,6.159,3.515,65.37,65.37,0,0,1,18.715,20.055,58.359,58.359,0,0,1,4.177,8.461,52.988,52.988,0,0,1,2.761,8.879,84.8,84.8,0,0,1,1.366,9.07,70.676,70.676,0,0,1,.166,7.278c0,0.03,0,.064,0,0.1a6.809,6.809,0,0,1-13.578.673,62.248,62.248,0,0,0-1.642-9.628,42.63,42.63,0,0,0-5.1-11.837v8.546l15.911,58.234a4.119,4.119,0,0,1-4.043,4.912H198.289l-2.419,53.343c-0.1,2.066-.44,4.216-0.87,7.582-1.436,0-4.943,0-7.052.007-2.514.007-5.476-.007-6.948-0.007-0.532-3.167-.914-5.851-1-7.507l-2.929-53.418H176.4l-2.419,53.345c-0.1,2.011-.581,5.137-0.983,7.58-1.446,0-4.778,0-6.94.007-2.241.006-5.595-.007-7.06-0.007a69.356,69.356,0,0,1-.9-7.507l-2.927-53.418H142.122Zm0,0M131,90a24,24,0,1,1-24,24A24,24,0,0,1,131,90Z"/>
  </g>
  <g id="Letras" class="cls-1">
    <path id="o" class="cls-3" d="M13.015,24.268Q13.574,9.966,25,10.412T35.86,25.161Q35.3,39.559,23.875,39.112T13.015,24.268h0ZM33.47,48.187a21.154,21.154,0,0,0,7.78-4.743,22.364,22.364,0,0,0,5.105-7.635,29.44,29.44,0,0,0,2.079-10.157,29.86,29.86,0,0,0-1.278-10.336A21.821,21.821,0,0,0,42.662,7.3a21.6,21.6,0,0,0-7.34-5.286A26.6,26.6,0,0,0,25.409-.147a27.24,27.24,0,0,0-10.2,1.38A21.665,21.665,0,0,0,7.385,5.975,21.916,21.916,0,0,0,2.23,13.656,29.528,29.528,0,0,0,.153,23.765,29.994,29.994,0,0,0,1.391,33.908a21.7,21.7,0,0,0,4.444,8.057,21.566,21.566,0,0,0,7.432,5.386,27.257,27.257,0,0,0,10.2,2.225A26.692,26.692,0,0,0,33.47,48.187Z"/>
    <path id="n" class="cls-2" d="M92.819,57.064l2.837-32.633a17.768,17.768,0,0,0-.61-6.851,14.523,14.523,0,0,0-2.825-5.211,13.237,13.237,0,0,0-4.666-3.443A18.778,18.778,0,0,0,81.422,7.38a18.986,18.986,0,0,0-9.557,1.242A15.173,15.173,0,0,0,65.5,14.192L66.1,7.3,54.231,6.27,50.138,53.354l12.441,1.081,2.346-26.987q0.94-10.813,10.606-9.974,4.4,0.383,6.054,2.455t1.178,7.527L80.283,55.974Z"/>
    <path id="é" class="cls-3" d="M114.125,39.931a11.68,11.68,0,0,1,4.446-6.95,8.862,8.862,0,0,1,6.871-1.526,10.4,10.4,0,0,1,3.384,1.254,8.616,8.616,0,0,1,2.678,2.443,9.578,9.578,0,0,1,1.538,3.6,13.165,13.165,0,0,1,.076,4.653Zm30.237,13.541q2.542-13.89-1.724-21.8T127.6,21.791a26.122,26.122,0,0,0-9.846-.093,19.3,19.3,0,0,0-7.913,3.484,21.339,21.339,0,0,0-5.76,6.661,29.965,29.965,0,0,0-3.293,9.456Q96.155,66.623,119.4,70.876a21.772,21.772,0,0,0,13.56-1.523,20.73,20.73,0,0,0,9.582-9.672L129.88,57.364a6.3,6.3,0,0,1-3.676,3.282,10.455,10.455,0,0,1-5.59.393,9.505,9.505,0,0,1-6.752-4.458,13.482,13.482,0,0,1-1.532-8.972Zm0.169-42.547-3.023-8.561-21.652,7.854,1.978,5.733Z"/>
    <path id="a" class="cls-2" d="M178.831,43.329a8.988,8.988,0,0,1-1.389,3.846,10.89,10.89,0,0,1-6.576,4.712,12.038,12.038,0,0,1-4.533.269q-6.007-.734-5.366-5.978a5.707,5.707,0,0,1,2.573-4.427q2.2-1.376,7.669-1.773a50.87,50.87,0,0,0,5.4-.6,6.757,6.757,0,0,0,2.952-1.188Zm10.312,19.357,3.624-29.654a27.451,27.451,0,0,0-.087-7.995,13.75,13.75,0,0,0-2.674-6.23,15.248,15.248,0,0,0-5.761-4.333,31.261,31.261,0,0,0-9.24-2.388,33.3,33.3,0,0,0-9.681.027,16.637,16.637,0,0,0-6.755,2.61,12.893,12.893,0,0,0-4.169,4.813,21.417,21.417,0,0,0-2.007,6.529l11.537,1.41a9,9,0,0,1,2.954-4.768q2.093-1.679,6.383-1.155a11.251,11.251,0,0,1,5.612,1.992,4.015,4.015,0,0,1,1.708,3.838,4.031,4.031,0,0,1-2.058,3.378q-1.756.9-6.509,0.995t-8.81.423a21.755,21.755,0,0,0-7.126,1.694,12.173,12.173,0,0,0-5.058,4.172A17.128,17.128,0,0,0,148.42,45.9a12.328,12.328,0,0,0,2.63,9.757q3.328,4.036,11.434,5.026a22.275,22.275,0,0,0,8.572-.453,15.445,15.445,0,0,0,6.3-3.246,19.1,19.1,0,0,0,.25,4.289Z"/>
    <path id="m" class="cls-3" d="M260.032,79.142l5.616-32.271a15.919,15.919,0,0,0-2.529-11.8,14.736,14.736,0,0,0-4.439-4.185,17.325,17.325,0,0,0-6.229-2.3,15.5,15.5,0,0,0-7.876.433,12.635,12.635,0,0,0-6,4.758,27.269,27.269,0,0,0-2.057-3.868,13.71,13.71,0,0,0-2.388-2.8,10.4,10.4,0,0,0-3.09-1.854,21.491,21.491,0,0,0-4.145-1.111,17.449,17.449,0,0,0-8.246.32q-3.61,1.127-6.782,5.352l1.186-6.814-11.546-2.009-8.1,46.562,12.3,2.141,4.925-28.3q1.581-9.085,9.057-7.784a12.133,12.133,0,0,1,3.333,1.019,4.9,4.9,0,0,1,2.064,1.87,6.354,6.354,0,0,1,.783,3.061,23.641,23.641,0,0,1-.428,4.7l-4.876,28.013,12.3,2.141,4.842-27.823a11.327,11.327,0,0,1,3.46-6.711,6.965,6.965,0,0,1,6.125-1.859,6.393,6.393,0,0,1,4.838,3.572,11.384,11.384,0,0,1,.785,7.254l-4.908,28.2Z"/>
    <path id="i" class="cls-2" d="M284.03,75.008l4.024-47.092-12.9-1.066-4.025,47.092Zm4.507-52.74,0.99-11.582-12.9-1.066L275.636,21.2Z"/>
  </g>
  <path id="formación_y_desarrollo_familiar_de_nuevo_casas_grandes" data-name="formación y desarrollo familiar de nuevo casas grandes" class="cls-4" d="M471.289,138.36V126.83H442.514V111.95h32.913V100.519H428.816v65.433h13.7V138.36h28.775Zm21.631,12.761q-4.682-5.37-4.681-17t4.632-17.639q4.631-6.009,13.3-6.011t13.205,6.011q4.531,6.012,4.533,17.639a32.619,32.619,0,0,1-1.379,10.052,19.273,19.273,0,0,1-3.794,6.947,15.246,15.246,0,0,1-5.667,4.041,18.06,18.06,0,0,1-6.9,1.33Q497.6,156.492,492.92,151.121Zm36.461,8.524q8.031-8.573,8.032-25.523a50.518,50.518,0,0,0-2.07-15.028,31.708,31.708,0,0,0-6.011-11.283,25.339,25.339,0,0,0-9.8-7.046,38.272,38.272,0,0,0-26.755,0,26.483,26.483,0,0,0-9.854,7,30.4,30.4,0,0,0-6.11,11.185,49.655,49.655,0,0,0-2.069,14.88q0,16.655,8.13,25.523t23.3,8.869Q521.348,168.219,529.381,159.645Zm43.21-47.794q5.122,0,7.342,2.464a9.072,9.072,0,0,1,2.217,6.307,8.816,8.816,0,0,1-2.266,6.208q-2.268,2.465-7.785,2.464H554.952V111.851h17.639Zm20.6,54.1V147.426q0-5.715-1.823-8.574a10.855,10.855,0,0,0-6.159-4.237,13.5,13.5,0,0,0,7.243-5.765,17.607,17.607,0,0,0,2.513-9.411,19.753,19.753,0,0,0-1.429-7.538,17.024,17.024,0,0,0-4.09-6.012,19.243,19.243,0,0,0-6.356-3.941,22.662,22.662,0,0,0-8.228-1.429h-33.21v65.433h13.3V140.331h14.584q5.913,0,8.081,2.02t2.168,6.75v16.851h13.4Zm68.882,0V100.519H642.36L630.535,148.51,618.71,100.519h-20.1v65.433h12.712v-44.64l12.121,44.64h13.6l12.219-44.837v44.837h12.811Zm42.372-24.734H687.788l8.376-26.016h0.1ZM727.4,165.952l-23.059-65.433H688.477l-23.355,65.433h14.486l4.632-13.5h24.143l4.139,13.5H727.4Zm40.206-22.468a17.379,17.379,0,0,1-5.075,9.51q-3.694,3.3-9.805,3.3-7.981,0-11.973-6.061t-3.991-17q0-10.739,4.04-16.9t12.614-6.159a13.972,13.972,0,0,1,8.869,3.1A15.352,15.352,0,0,1,767.608,122h13.7a27.09,27.09,0,0,0-2.611-9.263,24.285,24.285,0,0,0-5.716-7.538,26.435,26.435,0,0,0-8.573-5.026,32.053,32.053,0,0,0-11.086-1.823,31.458,31.458,0,0,0-12.663,2.463,26.345,26.345,0,0,0-9.608,7.046,31.751,31.751,0,0,0-6.061,11.234,49.061,49.061,0,0,0-2.119,14.93,43.263,43.263,0,0,0,2.316,14.831,31.019,31.019,0,0,0,6.356,10.692,25.7,25.7,0,0,0,9.608,6.5,32.728,32.728,0,0,0,11.973,2.168,29.553,29.553,0,0,0,10.446-1.774,25.794,25.794,0,0,0,8.327-5.026,27.569,27.569,0,0,0,5.962-7.785,36.977,36.977,0,0,0,3.449-10.15h-13.7Zm30.153,22.468V100.519h-13.7v65.433h13.7Zm22.32-14.831q-4.682-5.37-4.681-17t4.631-17.639q4.632-6.009,13.3-6.011t13.2,6.011q4.532,6.012,4.533,17.639a32.617,32.617,0,0,1-1.38,10.052,19.273,19.273,0,0,1-3.794,6.947,15.235,15.235,0,0,1-5.666,4.041,18.064,18.064,0,0,1-6.9,1.33Q824.761,156.492,820.081,151.121Zm36.461,8.524q8.031-8.573,8.031-25.523a50.552,50.552,0,0,0-2.069-15.028,31.74,31.74,0,0,0-6.011-11.283,25.35,25.35,0,0,0-9.806-7.046,38.269,38.269,0,0,0-26.754,0,26.487,26.487,0,0,0-9.855,7,30.4,30.4,0,0,0-6.109,11.185,49.654,49.654,0,0,0-2.07,14.88q0,16.655,8.13,25.523t23.306,8.869Q848.509,168.219,856.542,159.645Zm-7.834-74.5-4.632-8.081-20.4,11.924,3.055,5.42Zm73.413,80.806V100.519h-12.81V142.6L883.3,100.519H868.809v65.433h12.712V122l27.987,43.951h12.613Zm64.151,0V141.415l21.878-40.9H992.382L979.67,127.126l-13.8-26.607H949.91l22.665,40.7v24.734h13.7Zm63.068-11.135V111.851h10.15a27.038,27.038,0,0,1,8.37,1.134,12.674,12.674,0,0,1,5.67,3.646,15.017,15.017,0,0,1,3.2,6.454,39.306,39.306,0,0,1,.99,9.461q0,11.136-4.04,16.7t-13.01,5.568h-11.33Zm14.09,11.135a27.149,27.149,0,0,0,11.53-2.414,26.06,26.06,0,0,0,8.97-6.8,30.942,30.942,0,0,0,5.76-10.544,43.513,43.513,0,0,0,2.02-13.648,37.253,37.253,0,0,0-2.26-13.4,29.622,29.622,0,0,0-6.26-10.052,26.9,26.9,0,0,0-9.61-6.356,32.982,32.982,0,0,0-12.22-2.217h-25.33v65.433h27.4Zm82.09,0V154.324h-36.37V137.473h32.03v-11.53h-32.03V111.95h34.79V100.519h-48.09v65.433h49.67Zm52.81-46.119a22.849,22.849,0,0,0-2.06-8.819,19.41,19.41,0,0,0-5.28-6.8,24.269,24.269,0,0,0-8.13-4.336,34.539,34.539,0,0,0-10.64-1.527,32.935,32.935,0,0,0-10.59,1.527,22.718,22.718,0,0,0-7.54,4.139,16.158,16.158,0,0,0-4.53,6.159,19.45,19.45,0,0,0-1.48,7.588,20.023,20.023,0,0,0,1.67,8.77,15.017,15.017,0,0,0,5.23,5.864,32.4,32.4,0,0,0,9.01,4.04q5.475,1.626,12.96,3.2a30.021,30.021,0,0,1,5.13,1.527,10.371,10.371,0,0,1,3.1,1.922,5.614,5.614,0,0,1,1.53,2.414,10.306,10.306,0,0,1,.39,2.907,7.452,7.452,0,0,1-3.35,6.406q-3.345,2.364-9.85,2.365a16.56,16.56,0,0,1-10.01-2.907,9.555,9.555,0,0,1-4.09-7.933h-13.2q0.39,10.84,7.59,16.358,7.185,5.519,21.48,5.519a33.773,33.773,0,0,0,9.56-1.331,24.47,24.47,0,0,0,7.88-3.843,18.77,18.77,0,0,0,5.32-6.159,17.267,17.267,0,0,0,1.97-8.376,24.927,24.927,0,0,0-.78-6.7,16.842,16.842,0,0,0-2.12-4.73,12.5,12.5,0,0,0-3.25-3.3,21.869,21.869,0,0,0-4.09-2.217,64.232,64.232,0,0,0-8.48-2.956q-4.635-1.28-10.94-2.759c-3.55-.853-6.12-1.922-7.73-3.2a5.885,5.885,0,0,1-2.42-4.779q0-7.983,11.63-7.982c4.2,0,7.36.822,9.46,2.463s3.32,4.139,3.65,7.489h13Zm39.72,21.385H1221.4l8.37-26.016h0.1Zm22.96,24.734-23.06-65.433h-15.87l-23.35,65.433h14.49l4.63-13.5h24.14l4.14,13.5h14.88Zm34-54.1q5.115,0,7.34,2.464a9.058,9.058,0,0,1,2.21,6.307,8.812,8.812,0,0,1-2.26,6.208q-2.265,2.465-7.79,2.464h-17.14V111.851h17.64Zm20.59,54.1V147.426q0-5.715-1.82-8.574a10.871,10.871,0,0,0-6.16-4.237,13.491,13.491,0,0,0,7.24-5.765,17.567,17.567,0,0,0,2.52-9.411,19.791,19.791,0,0,0-1.43-7.538,17.17,17.17,0,0,0-4.09-6.012,19.375,19.375,0,0,0-6.36-3.941,22.665,22.665,0,0,0-8.23-1.429h-33.21v65.433h13.31V140.331h14.58c3.94,0,6.64.674,8.08,2.02s2.17,3.6,2.17,6.75v16.851h13.4Zm36.36-54.1q5.13,0,7.35,2.464a9.1,9.1,0,0,1,2.21,6.307,8.812,8.812,0,0,1-2.26,6.208c-1.52,1.643-4.11,2.464-7.79,2.464h-17.15V111.851h17.64Zm20.6,54.1V147.426q0-5.715-1.82-8.574a10.871,10.871,0,0,0-6.16-4.237,13.491,13.491,0,0,0,7.24-5.765,17.561,17.561,0,0,0,2.51-9.411,19.6,19.6,0,0,0-1.43-7.538,17.013,17.013,0,0,0-4.08-6.012,19.375,19.375,0,0,0-6.36-3.941,22.665,22.665,0,0,0-8.23-1.429h-33.21v65.433h13.3V140.331h14.59q5.91,0,8.08,2.02c1.44,1.347,2.17,3.6,2.17,6.75v16.851h13.4Zm22.81-14.831q-4.68-5.37-4.68-17t4.63-17.639q4.635-6.009,13.31-6.011t13.2,6.011q4.53,6.012,4.53,17.639a32.587,32.587,0,0,1-1.38,10.052,19.237,19.237,0,0,1-3.79,6.947,15.232,15.232,0,0,1-5.67,4.041,17.99,17.99,0,0,1-6.89,1.33Q1400.05,156.492,1395.37,151.121Zm36.46,8.524q8.04-8.573,8.04-25.523a50.518,50.518,0,0,0-2.07-15.028,31.691,31.691,0,0,0-6.02-11.283,25.248,25.248,0,0,0-9.8-7.046,38.286,38.286,0,0,0-26.76,0,26.5,26.5,0,0,0-9.85,7,30.471,30.471,0,0,0-6.11,11.185,49.654,49.654,0,0,0-2.07,14.88q0,16.655,8.13,25.523t23.31,8.869Q1423.8,168.219,1431.83,159.645Zm58.39,6.307V154.028H1457.8V100.519h-13.7v65.433h46.12Zm49.37,0V154.028h-32.42V100.519h-13.7v65.433h46.12Zm16.9-14.831q-4.68-5.37-4.68-17t4.63-17.639q4.635-6.009,13.3-6.011t13.21,6.011q4.53,6.012,4.53,17.639a32.587,32.587,0,0,1-1.38,10.052,19.237,19.237,0,0,1-3.79,6.947,15.232,15.232,0,0,1-5.67,4.041,18.077,18.077,0,0,1-6.9,1.33Q1561.175,156.492,1556.49,151.121Zm36.46,8.524q8.025-8.573,8.03-25.523a50.518,50.518,0,0,0-2.07-15.028,31.675,31.675,0,0,0-6.01-11.283,25.356,25.356,0,0,0-9.81-7.046,38.258,38.258,0,0,0-26.75,0,26.42,26.42,0,0,0-9.85,7,30.327,30.327,0,0,0-6.11,11.185,49.654,49.654,0,0,0-2.07,14.88q0,16.655,8.13,25.523t23.3,8.869Q1584.92,168.219,1592.95,159.645ZM459.782,211.383v-8.564H438.408V191.766h24.448v-8.491H428.233v48.6h10.175v-20.5h21.374Zm25.326,2.123h-12.37l6.222-19.324h0.073Zm17.056,18.373-17.129-48.6H473.25l-17.348,48.6h10.761l3.44-10.029h17.933l3.075,10.029h11.053Zm49.407,0v-48.6h-14.64l-8.784,35.647-8.783-35.647H504.431v48.6h9.443V198.72l9,33.159h10.1l9.076-33.306v33.306h9.516Zm13.907,0v-48.6H555.3v48.6h10.175Zm37.915,0v-8.857H579.311V183.275H569.137v48.6h34.256Zm12.589,0v-48.6H605.808v48.6h10.174Zm31.4-18.373H635.013l6.222-19.324h0.073Zm17.055,18.373-17.129-48.6H635.526l-17.348,48.6h10.76l3.44-10.029h17.934l3.074,10.029h11.053Zm25.252-40.186q3.8,0,5.453,1.83a6.735,6.735,0,0,1,1.647,4.684,6.547,6.547,0,0,1-1.684,4.612q-1.684,1.83-5.782,1.83H676.588V191.693h13.1Zm15.3,40.186V218.117q0-4.243-1.354-6.368a8.06,8.06,0,0,0-4.575-3.147,10.035,10.035,0,0,0,5.38-4.283,13.08,13.08,0,0,0,1.867-6.99,14.684,14.684,0,0,0-1.062-5.6,12.656,12.656,0,0,0-3.037-4.465,14.317,14.317,0,0,0-4.722-2.928,16.861,16.861,0,0,0-6.112-1.061H666.706v48.6h9.882V212.847h10.834q4.39,0,6,1.5t1.61,5.014v12.517h9.955Zm32.353-8.272V191.693h7.539a20.1,20.1,0,0,1,6.222.842,9.4,9.4,0,0,1,4.209,2.708,11.226,11.226,0,0,1,2.379,4.794,29.377,29.377,0,0,1,.732,7.027q0,8.273-3,12.407t-9.662,4.136h-8.418Zm10.467,8.272a20.144,20.144,0,0,0,8.564-1.794,19.329,19.329,0,0,0,6.661-5.05,22.875,22.875,0,0,0,4.282-7.833,32.4,32.4,0,0,0,1.5-10.138,27.664,27.664,0,0,0-1.684-9.955,21.9,21.9,0,0,0-4.648-7.466,19.952,19.952,0,0,0-7.136-4.721,24.509,24.509,0,0,0-9.077-1.647H727.46v48.6h20.349Zm60.973,0v-8.638h-27.01V210.724h23.789V202.16H781.772V191.766h25.839v-8.491H771.89v48.6h36.892Zm60.095,0v-48.6h-9.516v31.256l-19.324-31.256h-10.76v48.6h9.442V199.232l20.788,32.647h9.37ZM901.3,215.7q0,9.443-9.735,9.442a8.038,8.038,0,0,1-6.442-2.635,10.624,10.624,0,0,1-2.269-7.173V183.275H872.536v33.012q0,8.784,5.161,13.03t14.017,4.245q9.588,0,14.786-4.5t5.2-13.358V183.275H901.3V215.7Zm51.019,16.177v-8.638h-27.01V210.724H949.1V202.16H925.312V191.766H951.15v-8.491H915.43v48.6h36.892Zm26.643,0,16.47-48.6H984.894l-10.54,34.11-10.614-34.11H952.907l16.469,48.6h9.589Zm28.365-11.017q-3.48-3.988-3.48-12.626t3.44-13.1q3.45-4.464,9.88-4.465,6.45,0,9.81,4.465,3.375,4.465,3.37,13.1a24.318,24.318,0,0,1-1.02,7.466,14.484,14.484,0,0,1-2.82,5.16,11.345,11.345,0,0,1-4.21,3,13.41,13.41,0,0,1-5.13.989Q1010.81,224.852,1007.33,220.862Zm27.08,6.332q5.97-6.369,5.97-18.958a37.358,37.358,0,0,0-1.54-11.163,23.49,23.49,0,0,0-4.46-8.381,18.845,18.845,0,0,0-7.29-5.234,28.421,28.421,0,0,0-19.87,0,19.664,19.664,0,0,0-7.32,5.2,22.588,22.588,0,0,0-4.538,8.308,36.89,36.89,0,0,0-1.537,11.053q0,12.371,6.038,18.958t17.307,6.588Q1028.45,233.562,1034.41,227.194Zm60.21-12a12.948,12.948,0,0,1-3.77,7.064,10.528,10.528,0,0,1-7.29,2.452q-5.925,0-8.89-4.5t-2.96-12.626q0-7.978,3-12.554t9.37-4.575a10.351,10.351,0,0,1,6.58,2.306,11.4,11.4,0,0,1,3.96,6.478h10.17a20,20,0,0,0-1.94-6.88,18.036,18.036,0,0,0-4.24-5.6,19.761,19.761,0,0,0-6.37-3.733,23.826,23.826,0,0,0-8.24-1.354,23.319,23.319,0,0,0-9.4,1.83,19.538,19.538,0,0,0-7.14,5.233,23.64,23.64,0,0,0-4.5,8.345,36.418,36.418,0,0,0-1.58,11.089,32.3,32.3,0,0,0,1.72,11.017,22.984,22.984,0,0,0,4.73,7.942,19.11,19.11,0,0,0,7.13,4.831,24.321,24.321,0,0,0,8.9,1.61,21.988,21.988,0,0,0,7.76-1.317,19.139,19.139,0,0,0,6.18-3.734,20.478,20.478,0,0,0,4.43-5.782,27.587,27.587,0,0,0,2.56-7.54h-10.17Zm36.74-1.683h-12.37l6.22-19.324h0.08Zm17.06,18.373-17.13-48.6H1119.5l-17.34,48.6h10.76l3.44-10.029h17.93l3.07,10.029h11.06Zm37.18-34.257a16.878,16.878,0,0,0-1.54-6.551,14.352,14.352,0,0,0-3.91-5.051,18.2,18.2,0,0,0-6.04-3.221,25.686,25.686,0,0,0-7.91-1.134,24.5,24.5,0,0,0-7.87,1.134,16.835,16.835,0,0,0-5.59,3.075,11.984,11.984,0,0,0-3.37,4.574,14.547,14.547,0,0,0-1.1,5.637,14.9,14.9,0,0,0,1.24,6.514,11.215,11.215,0,0,0,3.88,4.356,24.124,24.124,0,0,0,6.7,3q4.065,1.208,9.63,2.379a21.863,21.863,0,0,1,3.8,1.134,7.585,7.585,0,0,1,2.31,1.428,4.027,4.027,0,0,1,1.13,1.793,7.408,7.408,0,0,1,.3,2.159,5.527,5.527,0,0,1-2.49,4.758q-2.49,1.756-7.32,1.757a12.265,12.265,0,0,1-7.43-2.159,7.084,7.084,0,0,1-3.04-5.893h-9.81q0.3,8.053,5.64,12.151t15.96,4.1a25.15,25.15,0,0,0,7.1-.988,18.215,18.215,0,0,0,5.85-2.855,13.856,13.856,0,0,0,3.95-4.575,12.83,12.83,0,0,0,1.47-6.222,18.329,18.329,0,0,0-.59-4.977,12.216,12.216,0,0,0-1.57-3.513,9.3,9.3,0,0,0-2.42-2.453,15.978,15.978,0,0,0-3.03-1.647,48.137,48.137,0,0,0-6.3-2.2q-3.435-.95-8.12-2.049a15.055,15.055,0,0,1-5.75-2.379,4.353,4.353,0,0,1-1.79-3.55q0-5.929,8.63-5.929,4.695,0,7.03,1.83a7.656,7.656,0,0,1,2.71,5.563h9.66Zm29.5,15.884h-12.37l6.22-19.324h0.07Zm17.06,18.373-17.13-48.6h-11.79l-17.35,48.6h10.76l3.44-10.029h17.94l3.07,10.029h11.06Zm37.18-34.257a16.878,16.878,0,0,0-1.54-6.551,14.468,14.468,0,0,0-3.91-5.051,18.2,18.2,0,0,0-6.04-3.221,25.686,25.686,0,0,0-7.91-1.134,24.5,24.5,0,0,0-7.87,1.134,16.987,16.987,0,0,0-5.6,3.075,12.062,12.062,0,0,0-3.36,4.574,14.366,14.366,0,0,0-1.1,5.637,14.9,14.9,0,0,0,1.24,6.514,11.215,11.215,0,0,0,3.88,4.356,24.124,24.124,0,0,0,6.7,3q4.065,1.208,9.63,2.379a21.863,21.863,0,0,1,3.8,1.134,7.585,7.585,0,0,1,2.31,1.428,4.027,4.027,0,0,1,1.13,1.793,7.413,7.413,0,0,1,.29,2.159,5.541,5.541,0,0,1-2.48,4.758q-2.49,1.756-7.32,1.757a12.265,12.265,0,0,1-7.43-2.159,7.084,7.084,0,0,1-3.04-5.893h-9.81q0.285,8.053,5.64,12.151,5.34,4.1,15.95,4.1a25.049,25.049,0,0,0,7.1-.988,18.167,18.167,0,0,0,5.86-2.855,13.856,13.856,0,0,0,3.95-4.575,12.83,12.83,0,0,0,1.47-6.222,18.329,18.329,0,0,0-.59-4.977,12.216,12.216,0,0,0-1.57-3.513,9.3,9.3,0,0,0-2.42-2.453,15.76,15.76,0,0,0-3.04-1.647,47.469,47.469,0,0,0-6.29-2.2c-2.3-.633-5-1.317-8.13-2.049a15.069,15.069,0,0,1-5.74-2.379,4.363,4.363,0,0,1-1.8-3.55q0-5.929,8.64-5.929c3.12,0,5.47.611,7.03,1.83a7.656,7.656,0,0,1,2.71,5.563h9.66Zm67.12,34.257V205.747h-20.27v8.125h10.76a10.23,10.23,0,0,1-.92,4.282,11.4,11.4,0,0,1-2.52,3.55,12.071,12.071,0,0,1-3.77,2.416,12.236,12.236,0,0,1-4.65.878,11.613,11.613,0,0,1-6.08-1.537,13.155,13.155,0,0,1-4.21-3.99,17.53,17.53,0,0,1-2.41-5.489,24.659,24.659,0,0,1-.77-6.039q0-8.711,3.7-13.286a12,12,0,0,1,9.84-4.575,12.3,12.3,0,0,1,3.99.659,12.056,12.056,0,0,1,3.4,1.757,9.823,9.823,0,0,1,2.42,2.6,7.877,7.877,0,0,1,1.17,3.184h10.25a16.18,16.18,0,0,0-2.01-6.7,17.739,17.739,0,0,0-4.54-5.234,21.726,21.726,0,0,0-6.59-3.44,25.657,25.657,0,0,0-8.09-1.244,25.046,25.046,0,0,0-10.39,2.013,21.008,21.008,0,0,0-7.47,5.526,24.021,24.021,0,0,0-4.54,8.235,32.456,32.456,0,0,0-1.54,10.065,31.511,31.511,0,0,0,1.54,9.772,26.343,26.343,0,0,0,4.43,8.344,22.145,22.145,0,0,0,6.95,5.783,19.141,19.141,0,0,0,9.12,2.159,21.887,21.887,0,0,0,8.93-1.72,11.65,11.65,0,0,0,5.63-4.8l0.22,4.832h8.42Zm32.57-40.186q3.81,0,5.46,1.83a6.768,6.768,0,0,1,1.64,4.684,6.554,6.554,0,0,1-1.68,4.612q-1.68,1.83-5.78,1.83h-12.74V191.693h13.1Zm15.3,40.186V218.117q0-4.243-1.35-6.368a8.084,8.084,0,0,0-4.58-3.147,9.991,9.991,0,0,0,5.38-4.283,13.028,13.028,0,0,0,1.87-6.99,14.626,14.626,0,0,0-1.06-5.6,12.65,12.65,0,0,0-3.04-4.465,14.328,14.328,0,0,0-4.72-2.928,16.865,16.865,0,0,0-6.11-1.061h-24.67v48.6h9.88V212.847h10.83q4.4,0,6.01,1.5t1.61,5.014v12.517h9.95Zm31.77-18.373h-12.37l6.22-19.324h0.07Zm17.05,18.373-17.12-48.6h-11.79l-17.35,48.6h10.76l3.44-10.029h17.94l3.07,10.029h11.05Zm41.87,0v-48.6h-9.51v31.256l-19.33-31.256h-10.76v48.6h9.45V199.232l20.78,32.647h9.37Zm13.54-8.272V191.693h7.54a20.156,20.156,0,0,1,6.23.842,9.368,9.368,0,0,1,4.2,2.708,11.116,11.116,0,0,1,2.38,4.794,29.189,29.189,0,0,1,.74,7.027q0,8.273-3.01,12.407t-9.66,4.136h-8.42Zm10.47,8.272a20.191,20.191,0,0,0,8.57-1.794,19.429,19.429,0,0,0,6.66-5.05,22.939,22.939,0,0,0,4.28-7.833,32.4,32.4,0,0,0,1.5-10.138,27.709,27.709,0,0,0-1.68-9.955,22.123,22.123,0,0,0-4.65-7.466,20.012,20.012,0,0,0-7.14-4.721,24.513,24.513,0,0,0-9.08-1.647h-18.81v48.6h20.35Zm60.97,0v-8.638h-27.01V210.724h23.79V202.16h-23.79V191.766h25.84v-8.491h-35.72v48.6H1560Zm39.24-34.257a16.878,16.878,0,0,0-1.54-6.551,14.379,14.379,0,0,0-3.92-5.051,18.049,18.049,0,0,0-6.03-3.221,25.731,25.731,0,0,0-7.91-1.134,24.456,24.456,0,0,0-7.87,1.134,16.886,16.886,0,0,0-5.6,3.075,12.062,12.062,0,0,0-3.36,4.574,14.366,14.366,0,0,0-1.1,5.637,14.9,14.9,0,0,0,1.24,6.514,11.137,11.137,0,0,0,3.88,4.356,24.124,24.124,0,0,0,6.7,3q4.065,1.208,9.62,2.379a22.006,22.006,0,0,1,3.81,1.134,7.711,7.711,0,0,1,2.31,1.428,4.027,4.027,0,0,1,1.13,1.793,7.413,7.413,0,0,1,.29,2.159,5.527,5.527,0,0,1-2.49,4.758q-2.475,1.756-7.31,1.757a12.265,12.265,0,0,1-7.43-2.159,7.084,7.084,0,0,1-3.04-5.893h-9.81q0.285,8.053,5.64,12.151,5.34,4.1,15.95,4.1a25.049,25.049,0,0,0,7.1-.988,18.167,18.167,0,0,0,5.86-2.855,13.973,13.973,0,0,0,3.95-4.575,12.83,12.83,0,0,0,1.47-6.222,18.329,18.329,0,0,0-.59-4.977,12.492,12.492,0,0,0-1.57-3.513,9.3,9.3,0,0,0-2.42-2.453,15.76,15.76,0,0,0-3.04-1.647,47.469,47.469,0,0,0-6.29-2.2c-2.3-.633-5-1.317-8.13-2.049a15.069,15.069,0,0,1-5.74-2.379,4.363,4.363,0,0,1-1.8-3.55q0-5.929,8.64-5.929c3.12,0,5.47.611,7.03,1.83a7.656,7.656,0,0,1,2.71,5.563h9.66Z"/>
  <path class="cls-5" d="M359,0V326"/>
</svg>
