<?xml version="1.0" encoding="UTF-8" standalone="no"?>
<!-- Created with Inkscape (http://www.inkscape.org/) -->

<svg
   xmlns:dc="http://purl.org/dc/elements/1.1/"
   xmlns:cc="http://creativecommons.org/ns#"
   xmlns:rdf="http://www.w3.org/1999/02/22-rdf-syntax-ns#"
   xmlns:svg="http://www.w3.org/2000/svg"
   xmlns="http://www.w3.org/2000/svg"
   xmlns:sodipodi="http://sodipodi.sourceforge.net/DTD/sodipodi-0.dtd"
   xmlns:inkscape="http://www.inkscape.org/namespaces/inkscape"
   width="290"
   height="326"
   viewBox="0 0 76.729165 86.254168"
   version="1.1"
   id="svg8"
   inkscape:version="0.92.2pre0 (973e216, 2017-07-25)"
   sodipodi:docname="oneami-white.svg">
  <defs
     id="defs2">
    <style
       id="style12">
      .cls-1 {
        fill: #353895;
      }

      .cls-1, .cls-2 {
        fill-rule: evenodd;
      }

      .cls-2 {
        fill: #9b1a39;
      }
    </style>
  </defs>
  <sodipodi:namedview
     id="base"
     pagecolor="#ffffff"
     bordercolor="#666666"
     borderopacity="1.0"
     inkscape:pageopacity="0.0"
     inkscape:pageshadow="2"
     inkscape:zoom="1.979899"
     inkscape:cx="273.79492"
     inkscape:cy="196.34508"
     inkscape:document-units="mm"
     inkscape:current-layer="layer1"
     showgrid="false"
     units="px"
     inkscape:window-width="1600"
     inkscape:window-height="836"
     inkscape:window-x="0"
     inkscape:window-y="0"
     inkscape:window-maximized="1" />
  <metadata
     id="metadata5">
    <rdf:RDF>
      <cc:Work
         rdf:about="">
        <dc:format>image/svg+xml</dc:format>
        <dc:type
           rdf:resource="http://purl.org/dc/dcmitype/StillImage" />
        <dc:title></dc:title>
      </cc:Work>
    </rdf:RDF>
  </metadata>
  <g
     inkscape:label="Layer 1"
     inkscape:groupmode="layer"
     id="layer1"
     transform="translate(0,-210.74582)">
    <g
       id="g35"
       transform="matrix(0.26458333,0,0,0.26458333,-4.8511156,209.83627)"
       style="fill:#ffffff">
      <path
         d="M 52,330 H 265 L 300,93 161.984,71.389 c -3.9,6.09 -12.71,9.3 -23.984,7.611 -16.16,-2.374 -18.853,-11.261 -21.592,-14.748 l -0.872,-0.136 A 12.931,12.931 0 0 1 112,65 c -2.024,0.025 -10.034,0.308 -12,0 -3.585,-0.967 -3.934,-2.687 -5.034,-4.1 L 85.984,59.494 A 4.782,4.782 0 0 1 81,63 C 79.2,62.895 70.73,62.271 69,62 A 4.931,4.931 0 0 1 64.97,56.2 L 56.879,54.933 A 33.393,33.393 0 0 1 38,58 28.511,28.511 0 0 1 22.049,49.477 L 19,49 Z m 66.034,-128.036 a 14,14 0 1 1 -11.045,-6.361 14.016,14.016 0 0 1 11.045,6.361 z m 0,0 77.042,-44.835 a 22.929,22.929 0 1 1 10.856,-2.724 c 0,0 -2.949,2.724 -10.856,2.724 z M 88.279,261.7 a 4.155,4.155 0 0 1 -8.286,-0.411 c -0.011,-1.238 0.007,-2.464 0.05,-3.7 a 32.811,32.811 0 0 1 1.5,-8.659 37.043,37.043 0 0 1 2.849,-6.89 39.693,39.693 0 0 1 12.045,-13.5 18.1,18.1 0 0 1 3.733,-2.188 15.714,15.714 0 0 1 14.991,1.484 36.588,36.588 0 0 1 3.242,2.365 39.776,39.776 0 0 1 6.5,6.682 36.7,36.7 0 0 1 6.883,14.75 45.371,45.371 0 0 1 0.855,9.659 4.155,4.155 0 0 1 -8.286,0.411 29.788,29.788 0 0 0 -4.113,-13.1 v 4.491 l 9.245,37.35 c 0.416,1.612 0.69,3.277 -2.452,3.277 h -7.681 l -1.429,31.179 c -0.055,1.14 0.075,3.5 0.075,5.1 h -9 a 46.608,46.608 0 0 1 -0.761,-5.054 l -1.728,-31.233 h -0.517 l -1.425,31.187 c -0.043,1.3 -0.246,3.509 -0.246,5.072 C 103.085,330 100.8,330 100,330 h -5 c 0,-1.951 -0.058,-3.94 -0.12,-5.054 l -1.725,-31.233 h -7.516 a 2.747,2.747 0 0 1 -2.693,-3.284 l 9.4,-37.492 v -4.26 c -2.549,3.858 -3.586,8.492 -4.063,13.019 v 0 z m 0,0 m 44.021,30.523 -3.19,-13.811 -0.432,-8.567 a 9.115,9.115 0 0 0 6.894,-8.775 47.847,47.847 0 0 0 -1.124,-11.384 42.615,42.615 0 0 0 -4.109,-10.708 41.174,41.174 0 0 0 -3.787,-5.708 42.757,42.757 0 0 1 -0.142,-4.709 v -40.013 a 74.569,74.569 0 0 0 -4.6,13.612 c -2.493,-6.079 -7.84,-9.158 -15.233,-10.379 a 98.042,98.042 0 0 1 5.2,-15.122 74.326,74.326 0 0 1 9.739,-15.976 65.406,65.406 0 0 1 8.6,-8.757 53.859,53.859 0 0 1 4.776,-3.565 36.816,36.816 0 0 1 4.4,-2.445 c 15.723,-7.472 28.205,4.666 28.515,4.94 q 5.032,4.47 10.064,8.94 a 70.247,70.247 0 0 0 -21.3,24.056 63.442,63.442 0 0 0 -6.689,19.645 81.385,81.385 0 0 0 -0.945,13.992 11.92,11.92 0 0 0 11.882,11.686 11.687,11.687 0 0 0 2.821,-0.363 c 0,0 -8.82,32.178 -9.321,34.233 -0.675,2.781 -0.907,8.567 5.536,8.567 h 10.693 l 0.818,14.446 -1.466,35.271 c -0.093,2.049 -0.491,5.5 -0.9,8.671 h -7 c -2.674,0 -6.471,0 -8,0 -0.324,-2.769 -0.6,-6.913 -0.687,-8.6 l -2.984,-59.092 -2.464,59.018 c -0.1,2.246 -0.532,4.665 -0.865,8.674 h -7 c -2.285,0 -6.482,0 -8,0 0,-1.408 -0.614,-6.524 -0.719,-8.6 l -1.3,-25.669 c 3.381,-0.265 2.315,-3.508 2.315,-3.508 v 0 z m 0,0 28.822,-23.148 a 4.111,4.111 0 0 1 -3.178,-1.5 3.9,3.9 0 0 1 -0.86,-3.426 l 15.863,-57.53 v -9.108 a 41.428,41.428 0 0 0 -5.016,11.7 62.467,62.467 0 0 0 -1.642,9.631 6.809,6.809 0 0 1 -13.578,-0.676 c -0.016,-2.185 0,-4.356 0.106,-6.542 a 58.218,58.218 0 0 1 1.224,-8.941 59.569,59.569 0 0 1 6.659,-17.483 65.337,65.337 0 0 1 18.566,-20.426 36.318,36.318 0 0 1 5.938,-3.624 c 0.186,-0.085 0.375,-0.161 0.569,-0.234 a 23.017,23.017 0 0 1 19.868,-0.1 27.054,27.054 0 0 1 6.159,3.515 65.37,65.37 0 0 1 18.715,20.055 58.359,58.359 0 0 1 4.177,8.461 52.988,52.988 0 0 1 2.761,8.879 84.8,84.8 0 0 1 1.366,9.07 70.676,70.676 0 0 1 0.166,7.278 c 0,0.03 0,0.064 0,0.1 a 6.809,6.809 0 0 1 -13.578,0.673 62.248,62.248 0 0 0 -1.642,-9.628 42.63,42.63 0 0 0 -5.1,-11.837 v 8.546 l 15.911,58.234 a 4.119,4.119 0 0 1 -4.043,4.912 h -13.244 l -2.419,53.343 c -0.1,2.066 -0.44,4.216 -0.87,7.582 -1.436,0 -4.943,0 -7.052,0.007 -2.514,0.007 -5.476,-0.007 -6.948,-0.007 -0.532,-3.167 -0.914,-5.851 -1,-7.507 l -2.929,-53.418 H 195.4 l -2.419,53.345 c -0.1,2.011 -0.581,5.137 -0.983,7.58 -1.446,0 -4.778,0 -6.94,0.007 -2.241,0.006 -5.595,-0.007 -7.06,-0.007 a 69.356,69.356 0 0 1 -0.9,-7.507 l -2.927,-53.418 h -13.049 z m 0,0 M 150,94 a 24,24 0 1 1 -24,24 24,24 0 0 1 24,-24 z"
         class="cls-1"
         data-name="Shape 1 copy 2"
         id="Shape_1_copy_2"
         inkscape:connector-curvature="0"
         style="fill:#ffffff;fill-rule:evenodd" />
      <path
         d="M 32.015,28.268 Q 32.574,13.966 44,14.412 55.426,14.858 54.86,29.161 54.3,43.559 42.875,43.112 31.45,42.665 32.015,28.268 Z M 52.47,52.187 a 21.154,21.154 0 0 0 7.78,-4.743 22.364,22.364 0 0 0 5.1,-7.635 29.442,29.442 0 0 0 2.079,-10.157 29.86,29.86 0 0 0 -1.278,-10.336 21.823,21.823 0 0 0 -4.489,-8.016 21.6,21.6 0 0 0 -7.34,-5.286 26.6,26.6 0 0 0 -9.913,-2.166 27.24,27.24 0 0 0 -10.2,1.38 21.665,21.665 0 0 0 -7.828,4.741 21.917,21.917 0 0 0 -5.155,7.682 29.528,29.528 0 0 0 -2.077,10.109 29.993,29.993 0 0 0 1.238,10.142 21.069,21.069 0 0 0 11.88,13.448 27.259,27.259 0 0 0 10.2,2.225 26.693,26.693 0 0 0 10.003,-1.388 z"
         class="cls-2"
         id="o"
         inkscape:connector-curvature="0"
         style="fill:#ffffff;fill-rule:evenodd" />
      <path
         d="m 111.819,61.064 2.837,-32.633 a 17.761,17.761 0 0 0 -0.61,-6.851 14.513,14.513 0 0 0 -2.825,-5.211 13.239,13.239 0 0 0 -4.666,-3.443 18.782,18.782 0 0 0 -6.134,-1.546 18.985,18.985 0 0 0 -9.557,1.242 15.173,15.173 0 0 0 -6.364,5.57 l 0.6,-6.89 -11.869,-1.032 -4.093,47.084 12.441,1.081 2.346,-26.987 q 0.94,-10.813 10.606,-9.974 4.4,0.383 6.054,2.455 1.654,2.072 1.178,7.527 l -2.48,28.518 z"
         class="cls-1"
         id="n"
         inkscape:connector-curvature="0"
         style="fill:#ffffff;fill-rule:evenodd" />
      <path
         d="m 133.125,43.931 a 11.68,11.68 0 0 1 4.446,-6.95 8.862,8.862 0 0 1 6.871,-1.526 10.4,10.4 0 0 1 3.384,1.254 8.616,8.616 0 0 1 2.678,2.443 9.579,9.579 0 0 1 1.538,3.6 13.165,13.165 0 0 1 0.076,4.653 z m 30.237,13.541 q 2.542,-13.89 -1.724,-21.8 -4.266,-7.91 -15.038,-9.881 a 26.122,26.122 0 0 0 -9.846,-0.093 19.3,19.3 0 0 0 -7.913,3.484 21.337,21.337 0 0 0 -5.76,6.661 29.966,29.966 0 0 0 -3.293,9.456 q -4.632,25.324 18.612,29.577 a 21.772,21.772 0 0 0 13.56,-1.523 20.73,20.73 0 0 0 9.582,-9.672 L 148.88,61.364 a 6.3,6.3 0 0 1 -3.676,3.282 10.455,10.455 0 0 1 -5.59,0.393 9.505,9.505 0 0 1 -6.752,-4.458 13.482,13.482 0 0 1 -1.532,-8.972 z m 0.169,-42.547 -3.023,-8.561 -21.652,7.854 1.978,5.733 z"
         class="cls-2"
         id="é"
         inkscape:connector-curvature="0"
         style="fill:#ffffff;fill-rule:evenodd" />
      <path
         d="m 197.831,47.329 a 8.975,8.975 0 0 1 -1.389,3.846 10.888,10.888 0 0 1 -6.576,4.712 12.038,12.038 0 0 1 -4.533,0.269 q -6.007,-0.734 -5.366,-5.978 a 5.707,5.707 0 0 1 2.573,-4.427 q 2.2,-1.376 7.669,-1.773 a 50.843,50.843 0 0 0 5.4,-0.6 6.757,6.757 0 0 0 2.952,-1.188 z m 10.312,19.357 3.624,-29.654 a 27.451,27.451 0 0 0 -0.087,-7.995 13.75,13.75 0 0 0 -2.674,-6.23 15.248,15.248 0 0 0 -5.761,-4.333 31.261,31.261 0 0 0 -9.24,-2.387 33.3,33.3 0 0 0 -9.681,0.027 16.637,16.637 0 0 0 -6.755,2.61 12.893,12.893 0 0 0 -4.169,4.813 21.417,21.417 0 0 0 -2.007,6.529 l 11.537,1.41 a 9,9 0 0 1 2.954,-4.768 q 2.093,-1.679 6.383,-1.155 a 11.251,11.251 0 0 1 5.612,1.992 4.015,4.015 0 0 1 1.708,3.838 4.031,4.031 0 0 1 -2.058,3.378 q -1.756,0.9 -6.509,0.995 -4.753,0.095 -8.81,0.423 a 21.752,21.752 0 0 0 -7.126,1.694 12.172,12.172 0 0 0 -5.058,4.172 17.129,17.129 0 0 0 -2.606,7.855 12.328,12.328 0 0 0 2.63,9.757 q 3.328,4.036 11.434,5.026 a 22.277,22.277 0 0 0 8.572,-0.452 15.446,15.446 0 0 0 6.3,-3.246 19.1,19.1 0 0 0 0.25,4.289 z"
         class="cls-1"
         id="a"
         inkscape:connector-curvature="0"
         style="fill:#ffffff;fill-rule:evenodd" />
      <path
         d="m 279.032,83.142 5.617,-32.271 a 15.926,15.926 0 0 0 -2.53,-11.8 14.736,14.736 0 0 0 -4.439,-4.185 17.327,17.327 0 0 0 -6.229,-2.3 15.5,15.5 0 0 0 -7.876,0.433 12.635,12.635 0 0 0 -6,4.758 27.269,27.269 0 0 0 -2.057,-3.868 13.71,13.71 0 0 0 -2.388,-2.8 10.4,10.4 0 0 0 -3.09,-1.854 21.472,21.472 0 0 0 -4.145,-1.111 17.45,17.45 0 0 0 -8.246,0.32 q -3.61,1.127 -6.782,5.352 l 1.186,-6.814 -11.546,-2.009 -8.1,46.562 12.3,2.141 4.925,-28.3 q 1.581,-9.085 9.057,-7.784 a 12.134,12.134 0 0 1 3.333,1.019 4.9,4.9 0 0 1 2.064,1.87 6.354,6.354 0 0 1 0.783,3.061 23.64,23.64 0 0 1 -0.428,4.7 l -4.876,28.013 12.3,2.141 4.842,-27.823 a 11.326,11.326 0 0 1 3.46,-6.711 6.964,6.964 0 0 1 6.125,-1.859 6.391,6.391 0 0 1 4.838,3.572 11.384,11.384 0 0 1 0.785,7.254 l -4.908,28.2 z"
         class="cls-2"
         id="m"
         inkscape:connector-curvature="0"
         style="fill:#ffffff;fill-rule:evenodd" />
      <path
         d="m 303.03,79.008 4.024,-47.093 -12.9,-1.066 -4.025,47.092 z m 4.507,-52.74 0.99,-11.582 -12.9,-1.066 -0.991,11.58 z"
         class="cls-1"
         id="i"
         inkscape:connector-curvature="0"
         style="fill:#ffffff;fill-rule:evenodd" />
    </g>
  </g>
</svg>
