<svg xmlns="http://www.w3.org/2000/svg" width="318" height="360" viewBox="0 0 318 360">
  <metadata><?xpacket begin="﻿" id="W5M0MpCehiHzreSzNTczkc9d"?>
<x:xmpmeta xmlns:x="adobe:ns:meta/" x:xmptk="Adobe XMP Core 5.6-c138 79.159824, 2016/09/14-01:09:01        ">
   <rdf:RDF xmlns:rdf="http://www.w3.org/1999/02/22-rdf-syntax-ns#">
      <rdf:Description rdf:about=""
            xmlns:xmp="http://ns.adobe.com/xap/1.0/">
         <xmp:CreatorTool>Adobe Photoshop CC 2017 (Windows)</xmp:CreatorTool>
      </rdf:Description>
   </rdf:RDF>
</x:xmpmeta>
                                                                                                    
                                                                                                    
                                                                                                    
                                                                                                    
                                                                                                    
                                                                                                    
                                                                                                    
                                                                                                    
                                                                                                    
                                                                                                    
                                                                                                    
                                                                                                    
                                                                                                    
                                                                                                    
                                                                                                    
                                                                                                    
                                                                                                    
                                                                                                    
                                                                                                    
                                                                                                    
                           
<?xpacket end="w"?></metadata>
<defs>
    <style>
      .cls-1 {
        fill: #353895;
      }

      .cls-1, .cls-2 {
        fill-rule: evenodd;
      }

      .cls-2 {
        fill: #9b1a39;
      }
    </style>
  </defs>
  <path id="Shape_1_copy_2" data-name="Shape 1 copy 2" class="cls-1" d="M52,330H265L300,93,161.984,71.389c-3.9,6.09-12.71,9.3-23.984,7.611-16.16-2.374-18.853-11.261-21.592-14.748l-0.872-.136A12.931,12.931,0,0,1,112,65c-2.024.025-10.034,0.308-12,0-3.585-.967-3.934-2.687-5.034-4.1l-8.982-1.406A4.782,4.782,0,0,1,81,63c-1.8-.105-10.27-0.729-12-1a4.931,4.931,0,0,1-4.03-5.8l-8.091-1.267A33.393,33.393,0,0,1,38,58a28.511,28.511,0,0,1-15.951-8.523L19,49Zm66.034-128.036a14,14,0,1,1-11.045-6.361,14.016,14.016,0,0,1,11.045,6.361h0Zm0,0,77.042-44.835a22.929,22.929,0,1,1,10.856-2.724S202.983,157.129,195.076,157.129ZM88.279,261.7a4.155,4.155,0,0,1-8.286-.411c-0.011-1.238.007-2.464,0.05-3.7a32.811,32.811,0,0,1,1.5-8.659,37.043,37.043,0,0,1,2.849-6.89,39.693,39.693,0,0,1,12.045-13.5,18.1,18.1,0,0,1,3.733-2.188,15.714,15.714,0,0,1,14.991,1.484,36.588,36.588,0,0,1,3.242,2.365,39.776,39.776,0,0,1,6.5,6.682,36.7,36.7,0,0,1,6.883,14.75,45.371,45.371,0,0,1,.855,9.659,4.155,4.155,0,0,1-8.286.411,29.788,29.788,0,0,0-4.113-13.1v4.491l9.245,37.35c0.416,1.612.69,3.277-2.452,3.277h-7.681L117.925,324.9c-0.055,1.14.075,3.5,0.075,5.1h-9a46.608,46.608,0,0,1-.761-5.054l-1.728-31.233h-0.517L104.569,324.9c-0.043,1.3-.246,3.509-0.246,5.072C103.085,330,100.8,330,100,330H95c0-1.951-.058-3.94-0.12-5.054l-1.725-31.233H85.639a2.747,2.747,0,0,1-2.693-3.284l9.4-37.492v-4.26c-2.549,3.858-3.586,8.492-4.063,13.019h0Zm0,0M132.3,292.223l-3.19-13.811-0.432-8.567a9.115,9.115,0,0,0,6.894-8.775,47.847,47.847,0,0,0-1.124-11.384,42.615,42.615,0,0,0-4.109-10.708,41.174,41.174,0,0,0-3.787-5.708,42.757,42.757,0,0,1-.142-4.709V188.548a74.569,74.569,0,0,0-4.6,13.612c-2.493-6.079-7.84-9.158-15.233-10.379a98.042,98.042,0,0,1,5.2-15.122,74.326,74.326,0,0,1,9.739-15.976,65.406,65.406,0,0,1,8.6-8.757,53.859,53.859,0,0,1,4.776-3.565,36.816,36.816,0,0,1,4.4-2.445c15.723-7.472,28.205,4.666,28.515,4.94q5.032,4.47,10.064,8.94a70.247,70.247,0,0,0-21.3,24.056,63.442,63.442,0,0,0-6.689,19.645,81.385,81.385,0,0,0-.945,13.992,11.92,11.92,0,0,0,11.882,11.686,11.687,11.687,0,0,0,2.821-.363s-8.82,32.178-9.321,34.233c-0.675,2.781-.907,8.567,5.536,8.567h10.693l0.818,14.446L169.9,321.329c-0.093,2.049-.491,5.5-0.9,8.671h-7c-2.674,0-6.471,0-8,0-0.324-2.769-.6-6.913-0.687-8.6l-2.984-59.092-2.464,59.018c-0.1,2.246-.532,4.665-0.865,8.674h-7c-2.285,0-6.482,0-8,0,0-1.408-.614-6.524-0.719-8.6l-1.3-25.669c3.381-.265,2.315-3.508,2.315-3.508h0Zm0,0,28.822-23.148a4.111,4.111,0,0,1-3.178-1.5,3.9,3.9,0,0,1-.86-3.426l15.863-57.53v-9.108a41.428,41.428,0,0,0-5.016,11.7,62.467,62.467,0,0,0-1.642,9.631,6.809,6.809,0,0,1-13.578-.676c-0.016-2.185,0-4.356.106-6.542a58.218,58.218,0,0,1,1.224-8.941A59.569,59.569,0,0,1,160.7,185.2a65.337,65.337,0,0,1,18.566-20.426,36.318,36.318,0,0,1,5.938-3.624c0.186-.085.375-0.161,0.569-0.234a23.017,23.017,0,0,1,19.868-.1,27.054,27.054,0,0,1,6.159,3.515,65.37,65.37,0,0,1,18.715,20.055,58.359,58.359,0,0,1,4.177,8.461,52.988,52.988,0,0,1,2.761,8.879,84.8,84.8,0,0,1,1.366,9.07,70.676,70.676,0,0,1,.166,7.278c0,0.03,0,.064,0,0.1a6.809,6.809,0,0,1-13.578.673,62.248,62.248,0,0,0-1.642-9.628,42.63,42.63,0,0,0-5.1-11.837v8.546l15.911,58.234a4.119,4.119,0,0,1-4.043,4.912H217.289l-2.419,53.343c-0.1,2.066-.44,4.216-0.87,7.582-1.436,0-4.943,0-7.052.007-2.514.007-5.476-.007-6.948-0.007-0.532-3.167-.914-5.851-1-7.507l-2.929-53.418H195.4l-2.419,53.345c-0.1,2.011-.581,5.137-0.983,7.58-1.446,0-4.778,0-6.94.007-2.241.006-5.595-.007-7.06-0.007a69.356,69.356,0,0,1-.9-7.507l-2.927-53.418H161.122Zm0,0M150,94a24,24,0,1,1-24,24A24,24,0,0,1,150,94Z"/>
  <path id="o" class="cls-2" d="M32.015,28.268Q32.574,13.966,44,14.412T54.86,29.161Q54.3,43.559,42.875,43.112T32.015,28.268h0ZM52.47,52.187a21.154,21.154,0,0,0,7.78-4.743,22.364,22.364,0,0,0,5.1-7.635,29.442,29.442,0,0,0,2.079-10.157,29.86,29.86,0,0,0-1.278-10.336A21.823,21.823,0,0,0,61.662,11.3a21.6,21.6,0,0,0-7.34-5.286,26.6,26.6,0,0,0-9.913-2.166,27.24,27.24,0,0,0-10.2,1.38,21.665,21.665,0,0,0-7.828,4.741,21.917,21.917,0,0,0-5.155,7.682,29.528,29.528,0,0,0-2.077,10.109,29.993,29.993,0,0,0,1.238,10.142A21.069,21.069,0,0,0,32.267,51.35a27.259,27.259,0,0,0,10.2,2.225A26.693,26.693,0,0,0,52.47,52.187Z"/>
  <path id="n" class="cls-1" d="M111.819,61.064l2.837-32.633a17.761,17.761,0,0,0-.61-6.851,14.513,14.513,0,0,0-2.825-5.211,13.239,13.239,0,0,0-4.666-3.443,18.782,18.782,0,0,0-6.134-1.546,18.985,18.985,0,0,0-9.557,1.242A15.173,15.173,0,0,0,84.5,18.192l0.6-6.89L73.231,10.27,69.138,57.354l12.441,1.081,2.346-26.987q0.94-10.813,10.606-9.974,4.4,0.383,6.054,2.455t1.178,7.527L99.283,59.974Z"/>
  <path id="é" class="cls-2" d="M133.125,43.931a11.68,11.68,0,0,1,4.446-6.95,8.862,8.862,0,0,1,6.871-1.526,10.4,10.4,0,0,1,3.384,1.254,8.616,8.616,0,0,1,2.678,2.443,9.579,9.579,0,0,1,1.538,3.6,13.165,13.165,0,0,1,.076,4.653Zm30.237,13.541q2.542-13.89-1.724-21.8T146.6,25.791a26.122,26.122,0,0,0-9.846-.093,19.3,19.3,0,0,0-7.913,3.484,21.337,21.337,0,0,0-5.76,6.661,29.966,29.966,0,0,0-3.293,9.456Q115.156,70.623,138.4,74.876a21.772,21.772,0,0,0,13.56-1.523,20.73,20.73,0,0,0,9.582-9.672L148.88,61.364a6.3,6.3,0,0,1-3.676,3.282,10.455,10.455,0,0,1-5.59.393,9.505,9.505,0,0,1-6.752-4.458,13.482,13.482,0,0,1-1.532-8.972Zm0.169-42.547-3.023-8.561-21.652,7.854,1.978,5.733Z"/>
  <path id="a" class="cls-1" d="M197.831,47.329a8.975,8.975,0,0,1-1.389,3.846,10.888,10.888,0,0,1-6.576,4.712,12.038,12.038,0,0,1-4.533.269q-6.007-.734-5.366-5.978a5.707,5.707,0,0,1,2.573-4.427q2.2-1.376,7.669-1.773a50.843,50.843,0,0,0,5.4-.6,6.757,6.757,0,0,0,2.952-1.188Zm10.312,19.357,3.624-29.654a27.451,27.451,0,0,0-.087-7.995,13.75,13.75,0,0,0-2.674-6.23,15.248,15.248,0,0,0-5.761-4.333,31.261,31.261,0,0,0-9.24-2.387,33.3,33.3,0,0,0-9.681.027,16.637,16.637,0,0,0-6.755,2.61,12.893,12.893,0,0,0-4.169,4.813,21.417,21.417,0,0,0-2.007,6.529l11.537,1.41a9,9,0,0,1,2.954-4.768q2.093-1.679,6.383-1.155a11.251,11.251,0,0,1,5.612,1.992,4.015,4.015,0,0,1,1.708,3.838,4.031,4.031,0,0,1-2.058,3.378q-1.756.9-6.509,0.995t-8.81.423a21.752,21.752,0,0,0-7.126,1.694,12.172,12.172,0,0,0-5.058,4.172A17.129,17.129,0,0,0,167.42,49.9a12.328,12.328,0,0,0,2.63,9.757q3.328,4.036,11.434,5.026a22.277,22.277,0,0,0,8.572-.452,15.446,15.446,0,0,0,6.3-3.246,19.1,19.1,0,0,0,.25,4.289Z"/>
  <path id="m" class="cls-2" d="M279.032,83.142l5.617-32.271a15.926,15.926,0,0,0-2.53-11.8,14.736,14.736,0,0,0-4.439-4.185,17.327,17.327,0,0,0-6.229-2.3,15.5,15.5,0,0,0-7.876.433,12.635,12.635,0,0,0-6,4.758,27.269,27.269,0,0,0-2.057-3.868,13.71,13.71,0,0,0-2.388-2.8,10.4,10.4,0,0,0-3.09-1.854,21.472,21.472,0,0,0-4.145-1.111,17.45,17.45,0,0,0-8.246.32q-3.61,1.127-6.782,5.352l1.186-6.814-11.546-2.009-8.1,46.562,12.3,2.141,4.925-28.3q1.581-9.085,9.057-7.784a12.134,12.134,0,0,1,3.333,1.019,4.9,4.9,0,0,1,2.064,1.87,6.354,6.354,0,0,1,.783,3.061,23.64,23.64,0,0,1-.428,4.7l-4.876,28.013,12.3,2.141,4.842-27.823a11.326,11.326,0,0,1,3.46-6.711,6.964,6.964,0,0,1,6.125-1.859,6.391,6.391,0,0,1,4.838,3.572,11.384,11.384,0,0,1,.785,7.254l-4.908,28.2Z"/>
  <path id="i" class="cls-1" d="M303.03,79.008l4.024-47.093-12.9-1.066-4.025,47.092Zm4.507-52.74,0.99-11.582-12.9-1.066L294.636,25.2Z"/>
</svg>
