<svg xmlns="http://www.w3.org/2000/svg" xmlns:xlink="http://www.w3.org/1999/xlink" width="1268" height="326" viewBox="0 0 1268 326">
  <metadata><?xpacket begin="﻿" id="W5M0MpCehiHzreSzNTczkc9d"?>
<x:xmpmeta xmlns:x="adobe:ns:meta/" x:xmptk="Adobe XMP Core 5.6-c138 79.159824, 2016/09/14-01:09:01        ">
   <rdf:RDF xmlns:rdf="http://www.w3.org/1999/02/22-rdf-syntax-ns#">
      <rdf:Description rdf:about=""
            xmlns:xmp="http://ns.adobe.com/xap/1.0/">
         <xmp:CreatorTool>Adobe Photoshop CC 2017 (Windows)</xmp:CreatorTool>
      </rdf:Description>
   </rdf:RDF>
</x:xmpmeta>
                                                                                                    
                                                                                                    
                                                                                                    
                                                                                                    
                                                                                                    
                                                                                                    
                                                                                                    
                                                                                                    
                                                                                                    
                                                                                                    
                                                                                                    
                                                                                                    
                                                                                                    
                                                                                                    
                                                                                                    
                                                                                                    
                                                                                                    
                                                                                                    
                                                                                                    
                                                                                                    
                           
<?xpacket end="w"?></metadata>
<defs>
    <style>
      .cls-1 {
        fill: #353895;
      }

      .cls-1, .cls-2, .cls-4, .cls-5 {
        fill-rule: evenodd;
      }

      .cls-2 {
        fill: #9b1a39;
      }

      .cls-3 {
        filter: url(#filter);
      }

      .cls-4 {
        fill: #fff;
        filter: url(#filter-2);
      }

      .cls-5 {
        fill: none;
        stroke: #212529;
        stroke-width: 3px;
      }
    </style>
    <filter id="filter" filterUnits="userSpaceOnUse">
      <feFlood result="flood" flood-color="#353895"/>
      <feComposite result="composite" operator="in" in2="SourceGraphic"/>
      <feBlend result="blend" in2="SourceGraphic"/>
    </filter>
    <filter id="filter-2" x="437.75" y="257.188" width="816.03" height="38.781" filterUnits="userSpaceOnUse">
      <feFlood result="flood" flood-color="#212529"/>
      <feComposite result="composite" operator="in" in2="SourceGraphic"/>
      <feBlend result="blend" in2="SourceGraphic"/>
    </filter>
  </defs>
  <path id="Shape_1_copy_2" data-name="Shape 1 copy 2" class="cls-1" d="M33,326H246L281,89,142.984,67.389c-3.9,6.089-12.71,9.3-23.984,7.611-16.16-2.374-18.853-11.261-21.592-14.748l-0.871-.136A12.937,12.937,0,0,1,93,61c-2.024.025-10.034,0.308-12,0-3.585-.967-3.934-2.687-5.034-4.1l-8.982-1.406A4.782,4.782,0,0,1,62,59c-1.8-.105-10.27-0.729-12-1a4.931,4.931,0,0,1-4.03-5.8l-8.091-1.267A33.393,33.393,0,0,1,19,54,28.51,28.51,0,0,1,3.049,45.477L0,45ZM99.034,197.964A14,14,0,1,1,87.988,191.6a14.017,14.017,0,0,1,11.046,6.361h0Zm0,0,77.042-44.835a22.929,22.929,0,1,1,10.856-2.724S183.983,153.129,176.076,153.129ZM69.279,257.7a4.155,4.155,0,0,1-8.286-.411c-0.011-1.238.007-2.464,0.05-3.7a32.819,32.819,0,0,1,1.5-8.659,37.044,37.044,0,0,1,2.849-6.89,39.693,39.693,0,0,1,12.045-13.5,18.1,18.1,0,0,1,3.733-2.188,15.705,15.705,0,0,1,14.991,1.484,36.681,36.681,0,0,1,3.241,2.365,39.763,39.763,0,0,1,6.5,6.682,36.7,36.7,0,0,1,6.883,14.75,45.371,45.371,0,0,1,.855,9.659,4.155,4.155,0,0,1-8.286.411,29.788,29.788,0,0,0-4.113-13.1v4.491l9.245,37.35c0.416,1.612.69,3.277-2.452,3.277h-7.681L98.925,320.9C98.87,322.041,99,324.4,99,326H90a46.756,46.756,0,0,1-.761-5.054l-1.727-31.233H86.994L85.569,320.9c-0.043,1.3-.246,3.509-0.246,5.072C84.085,326,81.8,326,81,326H76c0-1.951-.058-3.94-0.12-5.054l-1.725-31.233H66.639a2.747,2.747,0,0,1-2.693-3.284l9.4-37.492v-4.26c-2.549,3.858-3.586,8.492-4.063,13.019h0Zm0,0M113.3,288.223l-3.19-13.811-0.432-8.567a9.115,9.115,0,0,0,6.894-8.775,47.847,47.847,0,0,0-1.124-11.384,42.615,42.615,0,0,0-4.109-10.708,41.174,41.174,0,0,0-3.787-5.708,42.757,42.757,0,0,1-.142-4.709V184.548a74.569,74.569,0,0,0-4.6,13.612c-2.493-6.079-7.84-9.158-15.233-10.379a98.114,98.114,0,0,1,5.2-15.122,74.335,74.335,0,0,1,9.739-15.976,65.406,65.406,0,0,1,8.6-8.757,53.859,53.859,0,0,1,4.776-3.565,36.881,36.881,0,0,1,4.4-2.445c15.724-7.472,28.206,4.666,28.516,4.94q5.032,4.47,10.064,8.94a70.247,70.247,0,0,0-21.3,24.056,63.442,63.442,0,0,0-6.689,19.645,81.385,81.385,0,0,0-.945,13.992,11.921,11.921,0,0,0,11.882,11.686,11.687,11.687,0,0,0,2.821-.363s-8.82,32.178-9.321,34.233c-0.675,2.781-.907,8.567,5.536,8.567h10.693l0.818,14.446L150.9,317.329c-0.093,2.049-.491,5.5-0.9,8.671h-7c-2.674,0-6.471,0-8,0-0.324-2.769-.6-6.913-0.687-8.6l-2.984-59.092-2.464,59.018c-0.1,2.246-.532,4.665-0.865,8.674h-7c-2.285,0-6.482,0-8,0,0-1.408-.614-6.524-0.719-8.6l-1.3-25.669c3.381-.265,2.315-3.508,2.315-3.508h0Zm0,0,28.822-23.148a4.111,4.111,0,0,1-3.178-1.5,3.9,3.9,0,0,1-.86-3.426l15.863-57.53v-9.108a41.428,41.428,0,0,0-5.016,11.7,62.467,62.467,0,0,0-1.642,9.631,6.809,6.809,0,0,1-13.578-.676c-0.016-2.185,0-4.356.106-6.542a58.218,58.218,0,0,1,1.224-8.941A59.569,59.569,0,0,1,141.7,181.2a65.337,65.337,0,0,1,18.566-20.426,36.318,36.318,0,0,1,5.938-3.624c0.186-.085.375-0.161,0.569-0.234a23.015,23.015,0,0,1,19.867-.1,27,27,0,0,1,6.16,3.515,65.37,65.37,0,0,1,18.715,20.055,58.359,58.359,0,0,1,4.177,8.461,52.988,52.988,0,0,1,2.761,8.879,84.8,84.8,0,0,1,1.366,9.07,70.676,70.676,0,0,1,.166,7.278c0,0.03,0,.064,0,0.1a6.809,6.809,0,0,1-13.578.673,62.248,62.248,0,0,0-1.642-9.628,42.63,42.63,0,0,0-5.1-11.837v8.546l15.911,58.234a4.119,4.119,0,0,1-4.043,4.912H198.289l-2.419,53.343c-0.1,2.066-.44,4.216-0.87,7.582-1.436,0-4.943,0-7.052.007-2.514.007-5.476-.007-6.948-0.007-0.532-3.167-.915-5.851-1-7.507l-2.929-53.418H176.4l-2.419,53.345c-0.1,2.011-.581,5.137-0.983,7.58-1.446,0-4.778,0-6.94.007-2.241.006-5.595-.007-7.06-0.007a69.356,69.356,0,0,1-.9-7.507l-2.927-53.418H142.122Zm0,0M131,90a24,24,0,1,1-24,24A24,24,0,0,1,131,90Z"/>
  <path id="o" class="cls-2" d="M13.015,24.268Q13.574,9.966,25,10.412T35.86,25.161Q35.3,39.559,23.875,39.112T13.015,24.268h0ZM33.47,48.187a21.152,21.152,0,0,0,7.78-4.743,22.367,22.367,0,0,0,5.105-7.635,29.442,29.442,0,0,0,2.079-10.157,29.86,29.86,0,0,0-1.278-10.336A21.82,21.82,0,0,0,42.662,7.3a21.6,21.6,0,0,0-7.34-5.286A26.6,26.6,0,0,0,25.409-.147a27.239,27.239,0,0,0-10.2,1.38A21.664,21.664,0,0,0,7.385,5.975,21.916,21.916,0,0,0,2.23,13.656,29.529,29.529,0,0,0,.153,23.765,30,30,0,0,0,1.391,33.908a21.707,21.707,0,0,0,4.444,8.057,21.566,21.566,0,0,0,7.432,5.386,27.256,27.256,0,0,0,10.2,2.225A26.691,26.691,0,0,0,33.47,48.187Z"/>
  <path id="n" class="cls-1" d="M92.819,57.064l2.837-32.633a17.769,17.769,0,0,0-.61-6.851,14.52,14.52,0,0,0-2.825-5.211,13.235,13.235,0,0,0-4.666-3.443A18.779,18.779,0,0,0,81.422,7.38a18.986,18.986,0,0,0-9.557,1.242A15.172,15.172,0,0,0,65.5,14.192L66.1,7.3,54.23,6.27,50.138,53.354l12.441,1.081,2.346-26.987q0.94-10.813,10.606-9.974,4.4,0.383,6.054,2.455t1.178,7.527L80.283,55.974Z"/>
  <path id="é" class="cls-2" d="M114.125,39.931a11.68,11.68,0,0,1,4.446-6.95,8.862,8.862,0,0,1,6.871-1.526,10.4,10.4,0,0,1,3.384,1.254,8.615,8.615,0,0,1,2.678,2.443,9.579,9.579,0,0,1,1.538,3.6,13.165,13.165,0,0,1,.076,4.653Zm30.237,13.541q2.542-13.89-1.724-21.8T127.6,21.791a26.122,26.122,0,0,0-9.846-.093,19.3,19.3,0,0,0-7.913,3.484,21.339,21.339,0,0,0-5.76,6.661,29.965,29.965,0,0,0-3.293,9.456Q96.155,66.623,119.4,70.876a21.772,21.772,0,0,0,13.56-1.523,20.73,20.73,0,0,0,9.582-9.672L129.88,57.364a6.3,6.3,0,0,1-3.676,3.282,10.455,10.455,0,0,1-5.59.393,9.505,9.505,0,0,1-6.752-4.458,13.482,13.482,0,0,1-1.532-8.972Zm0.169-42.547-3.024-8.561-21.651,7.854,1.978,5.733Z"/>
  <path id="a" class="cls-1" d="M178.831,43.329a8.988,8.988,0,0,1-1.389,3.846,10.89,10.89,0,0,1-6.576,4.712,12.038,12.038,0,0,1-4.533.269q-6.007-.734-5.366-5.978a5.707,5.707,0,0,1,2.573-4.427q2.2-1.376,7.669-1.773a50.87,50.87,0,0,0,5.4-.6,6.756,6.756,0,0,0,2.952-1.188Zm10.312,19.357,3.624-29.654a27.45,27.45,0,0,0-.087-7.995,13.75,13.75,0,0,0-2.674-6.23,15.257,15.257,0,0,0-5.761-4.333,31.272,31.272,0,0,0-9.24-2.387,33.3,33.3,0,0,0-9.681.027,16.637,16.637,0,0,0-6.755,2.61,12.893,12.893,0,0,0-4.169,4.813,21.389,21.389,0,0,0-2.007,6.529l11.537,1.41a9,9,0,0,1,2.954-4.768q2.093-1.679,6.383-1.155a11.244,11.244,0,0,1,5.611,1.992,4.014,4.014,0,0,1,1.709,3.838,4.031,4.031,0,0,1-2.058,3.378q-1.756.9-6.509,0.995t-8.81.423a21.755,21.755,0,0,0-7.126,1.694,12.166,12.166,0,0,0-5.058,4.172A17.128,17.128,0,0,0,148.42,45.9a12.328,12.328,0,0,0,2.63,9.757q3.328,4.036,11.434,5.026a22.275,22.275,0,0,0,8.572-.453,15.444,15.444,0,0,0,6.3-3.246,19.1,19.1,0,0,0,.25,4.289Z"/>
  <path id="m" class="cls-2" d="M260.032,79.142l5.616-32.271a15.919,15.919,0,0,0-2.529-11.8,14.747,14.747,0,0,0-4.439-4.185,17.325,17.325,0,0,0-6.229-2.3,15.5,15.5,0,0,0-7.876.433,12.635,12.635,0,0,0-6,4.758,27.269,27.269,0,0,0-2.057-3.868,13.707,13.707,0,0,0-2.388-2.8,10.4,10.4,0,0,0-3.09-1.854,21.491,21.491,0,0,0-4.145-1.111,17.448,17.448,0,0,0-8.246.32q-3.61,1.127-6.782,5.352l1.186-6.814-11.546-2.009-8.1,46.562,12.3,2.141,4.925-28.3q1.581-9.085,9.057-7.784a12.13,12.13,0,0,1,3.333,1.019,4.9,4.9,0,0,1,2.064,1.87,6.354,6.354,0,0,1,.783,3.061,23.578,23.578,0,0,1-.429,4.7l-4.875,28.013,12.3,2.141,4.842-27.823a11.321,11.321,0,0,1,3.46-6.711,6.965,6.965,0,0,1,6.125-1.859,6.393,6.393,0,0,1,4.838,3.572,11.384,11.384,0,0,1,.785,7.255l-4.908,28.2Z"/>
  <path id="i" class="cls-1" d="M284.03,75.008l4.024-47.092-12.9-1.066-4.025,47.093Zm4.507-52.74,0.99-11.582-12.9-1.066L275.636,21.2Z"/>
  <g id="Letras_copy" data-name="Letras copy" class="cls-3">
    <path id="o-2" data-name="o" class="cls-2" d="M469.666,145.85q-2.842-40.327,29.51-42.618t35.195,38.042q2.862,40.6-29.49,42.888T469.666,145.85h0Zm65.08,60.817a60.059,60.059,0,0,0,20.476-15.729,63.157,63.157,0,0,0,12.038-23.021,82.832,82.832,0,0,0,2.726-29.163,84,84,0,0,0-6.8-28.625A59.7,59.7,0,0,0,525.7,76.466a75.752,75.752,0,0,0-28.627-3.007,77.6,77.6,0,0,0-28.329,7.036A60.343,60.343,0,0,0,435.971,119.4a83.11,83.11,0,0,0-2.735,29.027,84.392,84.392,0,0,0,6.625,28.094,59.607,59.607,0,0,0,37.647,34.059q13.139,4.234,29.452,3.085A76.047,76.047,0,0,0,534.746,206.667Z"/>
    <path id="n-2" data-name="n" class="cls-1" d="M704.868,213.19l-2.082-92.5a49.977,49.977,0,0,0-3.837-19.046,40.957,40.957,0,0,0-9.578-13.756,37.552,37.552,0,0,0-14.224-8.22,53.477,53.477,0,0,0-17.775-2.438q-16.347.379-26.57,6.451a42.989,42.989,0,0,0-16.233,17.611l-0.44-19.532-33.785.783,3,133.468,35.421-.821-1.722-76.5q-0.69-30.651,26.829-31.291,12.53-.291,17.832,5.015t5.647,20.768l1.82,80.84Z"/>
    <path id="é-2" data-name="é" class="cls-2" d="M759.663,158.478q2.08-13.727,10.39-20.892a25.234,25.234,0,0,1,18.906-6.415,29.623,29.623,0,0,1,9.931,2.472,24.392,24.392,0,0,1,8.307,6.029,26.963,26.963,0,0,1,5.451,9.636,37.053,37.053,0,0,1,1.653,13.04Zm89.458,28.644q2.877-39.788-11.6-60.673T792.063,103.37q-15.5-1.1-27.8,2.792A54.875,54.875,0,0,0,743.026,118.4a60.351,60.351,0,0,0-14.187,20.488,84.418,84.418,0,0,0-6.365,27.57q-5.246,72.54,61.626,77.274,21.47,1.521,37.771-8.479t24.036-30.127l-36.425-2.58a17.857,17.857,0,0,1-9.355,10.355,29.771,29.771,0,0,1-15.643,2.837q-13.047-.924-20.421-10.424T756.971,180.6ZM836.451,67.61l-11.171-23.1L766.643,73.276l7.35,15.483Z"/>
    <path id="a-2" data-name="a" class="cls-1" d="M943.2,147.957a25.314,25.314,0,0,1-2.73,11.23,30.89,30.89,0,0,1-17.09,15.27,34.306,34.306,0,0,1-12.7,2.16q-17.169-.2-16.981-15.122,0.109-8.68,5.89-13.229t21.079-7.354a145.157,145.157,0,0,0,15.032-3.354,19.213,19.213,0,0,0,7.957-4.25Zm35.062,51.152,1.06-84.384a77.28,77.28,0,0,0-2.717-22.419,38.741,38.741,0,0,0-9.467-16.663q-6.6-6.723-17.585-10.38t-26.8-3.838q-16.082-.186-27.294,3.076t-18.242,9.422a36.433,36.433,0,0,0-10.271,14.806,60.269,60.269,0,0,0-3.645,18.954l32.975,0.382q1.471-8.939,6.857-14.3t17.645-5.223q10.353,0.12,16.441,3.854t6,10.246q-0.089,7.059-4.761,10.122t-18.049,4.811q-13.379,1.746-24.715,3.92a61.946,61.946,0,0,0-19.575,6.964,34.508,34.508,0,0,0-12.977,13.283q-4.743,8.493-4.92,22.874-0.2,16.28,10.432,26.579t33.8,10.568a63.475,63.475,0,0,0,24.034-3.928,43.863,43.863,0,0,0,16.765-11.068,53.78,53.78,0,0,0,2.03,11.964Z"/>
    <path id="m-2" data-name="m" class="cls-2" d="M1183.27,223.334l5.87-92.35a44.849,44.849,0,0,0-10.78-32.346,41.784,41.784,0,0,0-13.81-10.375,49.333,49.333,0,0,0-18.28-4.535q-12.8-.795-22.08,3.658-9.3,4.457-15.44,15.218a77.24,77.24,0,0,0-6.99-10.223,38.887,38.887,0,0,0-7.61-7.134A29.424,29.424,0,0,0,1084.87,81a61.241,61.241,0,0,0-12.04-1.835q-13.335-.828-23.16,3.455T1032.2,99.751l1.24-19.5-33.18-2.062-8.471,133.245,35.361,2.2,5.14-80.976q1.665-26,23.14-24.663a34.607,34.607,0,0,1,9.72,1.827,13.873,13.873,0,0,1,6.4,4.612,17.933,17.933,0,0,1,3.15,8.353,66.326,66.326,0,0,1,.25,13.338l-5.1,80.163,35.36,2.2,5.06-79.621q0.78-12.187,7.68-19.915t16.7-7.118a18.118,18.118,0,0,1,14.75,8.529q5.235,7.941,4.46,20.125l-5.13,80.705Z"/>
    <path id="i-2" data-name="i" class="cls-1" d="M1249.67,204.286l-3.2-133.47-36.71,1.007,3.2,133.471ZM1246.09,54.81l-0.79-32.825-36.71,1.007,0.79,32.825Z"/>
  </g>
  <path id="escuela_para_padres" data-name="escuela para padres" class="cls-4" d="M459.484,288.856H445.752v-9.732h12.777v-6.556H445.752v-8.286h13.732v-6.557H437.75v37.739h21.734v-6.608ZM500.1,278.75q-1.962-2.543-7.254-5.072a48.283,48.283,0,0,1-5.072-2.646,5.389,5.389,0,0,1-1.562-1.523,3.418,3.418,0,0,1-.49-1.846,3.492,3.492,0,0,1,1.213-2.762,5.147,5.147,0,0,1,3.485-1.058,16.084,16.084,0,0,1,3.885.491,37.814,37.814,0,0,1,5,1.729l2.581-6.221a38.691,38.691,0,0,0-5.589-1.962,22.182,22.182,0,0,0-5.614-.7q-5.988,0-9.383,2.866a9.752,9.752,0,0,0-3.394,7.873,9.948,9.948,0,0,0,1.032,4.646,11.72,11.72,0,0,0,2.762,3.485,23.167,23.167,0,0,0,5.189,3.123,46.872,46.872,0,0,1,4.891,2.556,6.92,6.92,0,0,1,1.82,1.665,3.3,3.3,0,0,1,.619,1.974,3.446,3.446,0,0,1-1.406,3,6.887,6.887,0,0,1-4.04,1.006,19.117,19.117,0,0,1-4.84-.7,44,44,0,0,1-6.466-2.4v7.434a24.04,24.04,0,0,0,10.686,2.271q6.557,0,10.235-2.942a9.758,9.758,0,0,0,3.679-8.054A9.9,9.9,0,0,0,500.1,278.75Zm41.462-14.158a42.781,42.781,0,0,1,4.26,1.755l2.581-6.5a25.4,25.4,0,0,0-11.048-2.659,18.218,18.218,0,0,0-9.409,2.362,15.486,15.486,0,0,0-6.156,6.789,23.408,23.408,0,0,0-2.143,10.312q0,9.345,4.363,14.34t12.6,4.994a26.729,26.729,0,0,0,10.377-1.936v-6.711a29.951,29.951,0,0,1-9.628,1.988q-9.474,0-9.473-12.623,0-6.066,2.478-9.461a8.154,8.154,0,0,1,7-3.394A12.707,12.707,0,0,1,541.557,264.592Zm48.613-6.867v23.051q0,4.389-1.768,6.441t-5.692,2.052q-4.053,0-5.808-2.039t-1.755-6.4v-23.1h-7.976v24.316q0,6.48,4.027,10.209t11.306,3.73a19.348,19.348,0,0,0,8.363-1.677,12.185,12.185,0,0,0,5.408-4.827,14.087,14.087,0,0,0,1.871-7.331v-24.42H590.17Zm51.375,31.131H627.813v-9.732H640.59v-6.556H627.813v-8.286h13.732v-6.557H619.811v37.739h21.734v-6.608Zm43.605,6.608v-6.608H669.843V257.725h-8v37.739H685.15Zm50.7,0L722.483,257.57H712.7L699.38,295.464H708l2.736-8.983H724.5l2.736,8.983h8.622Zm-23.1-15.694q4.028-13.035,4.879-16.34,0.206,0.93.684,2.53t4.272,13.81h-9.835Zm74.433-15.488h3.64a7.2,7.2,0,0,1,4.814,1.342,5.238,5.238,0,0,1,1.536,4.156,5.105,5.105,0,0,1-1.833,4.246,8.764,8.764,0,0,1-5.524,1.459h-2.633v-11.2Zm14.494-3.6q-3.576-2.955-10.441-2.956H779.182v37.739h8V282.041h3.433q7.022,0,10.829-3.226t3.807-9.319Q805.253,263.637,801.678,260.681Zm54.846,34.783L843.153,257.57H833.37l-13.319,37.894h8.621l2.737-8.983h13.758l2.736,8.983h8.621Zm-23.1-15.694q4.026-13.035,4.879-16.34,0.205,0.93.684,2.53t4.272,13.81h-9.835ZM881.7,264.282h2.427a11.2,11.2,0,0,1,5.717,1.136,4.13,4.13,0,0,1,1.846,3.82,4.516,4.516,0,0,1-1.807,3.975q-1.807,1.266-5.6,1.265H881.7v-10.2Zm4.259,16.7,9.009,14.481h8.88q-2.582-3.717-11.1-16.443a12.14,12.14,0,0,0,5.189-4.065,10.022,10.022,0,0,0,1.832-5.925q0-5.7-3.691-8.5t-11.384-2.8h-11v37.739h8V280.983h4.259Zm66.785,14.481L939.372,257.57h-9.783L916.27,295.464h8.621l2.736-8.983h13.759l2.736,8.983h8.621Zm-23.1-15.694q4.026-13.035,4.878-16.34,0.207,0.93.684,2.53t4.272,13.81h-9.834Zm74.429-15.488h3.64a7.222,7.222,0,0,1,4.82,1.342,5.246,5.246,0,0,1,1.53,4.156,5.106,5.106,0,0,1-1.83,4.246,8.749,8.749,0,0,1-5.52,1.459h-2.64v-11.2Zm14.5-3.6q-3.585-2.955-10.44-2.956H996.072v37.739h8V282.041h3.44q7.02,0,10.83-3.226t3.8-9.319Q1022.14,263.637,1018.57,260.681Zm54.84,34.783-13.37-37.894h-9.78l-13.32,37.894h8.62l2.74-8.983h13.76l2.73,8.983h8.62Zm-23.1-15.694q4.035-13.035,4.88-16.34c0.14,0.62.37,1.463,0.68,2.53s1.75,5.67,4.28,13.81h-9.84Zm66.48-17.166q-5.115-4.878-14.36-4.879h-11.84v37.739h10.68q10.02,0,15.32-4.956t5.31-14.275Q1121.9,267.483,1116.79,262.6Zm-14.77,26.252h-3.43V264.282h4.26q10.74,0,10.74,12.158,0,12.416-11.57,12.416h0Zm48.12-24.574h2.43a11.214,11.214,0,0,1,5.72,1.136,4.126,4.126,0,0,1,1.84,3.82,4.521,4.521,0,0,1-1.8,3.975c-1.21.844-3.07,1.265-5.6,1.265h-2.59v-10.2Zm4.26,16.7,9.01,14.481h8.88q-2.58-3.717-11.1-16.443a12.107,12.107,0,0,0,5.19-4.065,10.027,10.027,0,0,0,1.83-5.925q0-5.7-3.69-8.5t-11.38-2.8h-11v37.739h8V280.983h4.26Zm56.8,7.873h-13.73v-9.732h12.77v-6.556h-12.77v-8.286h13.73v-6.557h-21.74v37.739h21.74v-6.608Zm40.61-10.106q-1.965-2.543-7.25-5.072a49.063,49.063,0,0,1-5.08-2.646,5.47,5.47,0,0,1-1.56-1.523,3.731,3.731,0,0,1,.73-4.608,5.126,5.126,0,0,1,3.48-1.058,16.019,16.019,0,0,1,3.88.491,37.452,37.452,0,0,1,5,1.729l2.58-6.221a38.535,38.535,0,0,0-5.59-1.962,22.156,22.156,0,0,0-5.61-.7q-5.985,0-9.39,2.866a9.758,9.758,0,0,0-3.39,7.873,9.924,9.924,0,0,0,1.03,4.646,11.668,11.668,0,0,0,2.77,3.485,23.166,23.166,0,0,0,5.18,3.123,48.455,48.455,0,0,1,4.9,2.556,6.816,6.816,0,0,1,1.81,1.665,3.258,3.258,0,0,1,.62,1.974,3.435,3.435,0,0,1-1.4,3,6.9,6.9,0,0,1-4.04,1.006,19.05,19.05,0,0,1-4.84-.7,43.941,43.941,0,0,1-6.47-2.4v7.434a24.054,24.054,0,0,0,10.69,2.271q6.555,0,10.23-2.942a9.736,9.736,0,0,0,3.68-8.054A9.886,9.886,0,0,0,1251.81,278.75Z"/>
  <path class="cls-5" d="M359,0V326"/>
</svg>
