<svg xmlns="http://www.w3.org/2000/svg" xmlns:xlink="http://www.w3.org/1999/xlink" width="1173" height="512" viewBox="0 0 1173 512">
  <metadata><?xpacket begin="﻿" id="W5M0MpCehiHzreSzNTczkc9d"?>
<x:xmpmeta xmlns:x="adobe:ns:meta/" x:xmptk="Adobe XMP Core 5.6-c138 79.159824, 2016/09/14-01:09:01        ">
   <rdf:RDF xmlns:rdf="http://www.w3.org/1999/02/22-rdf-syntax-ns#">
      <rdf:Description rdf:about=""/>
   </rdf:RDF>
</x:xmpmeta>
                                                                                                    
                                                                                                    
                                                                                                    
                                                                                                    
                                                                                                    
                                                                                                    
                                                                                                    
                                                                                                    
                                                                                                    
                                                                                                    
                                                                                                    
                                                                                                    
                                                                                                    
                                                                                                    
                                                                                                    
                                                                                                    
                                                                                                    
                                                                                                    
                                                                                                    
                                                                                                    
                           
<?xpacket end="w"?></metadata>
<defs>
    <style>
      .cls-1 {
        filter: url(#filter);
      }

      .cls-2 {
        fill: #353895;
      }

      .cls-2, .cls-3, .cls-4, .cls-5 {
        fill-rule: evenodd;
      }

      .cls-3 {
        fill: #9b1a39;
      }

      .cls-4 {
        fill: #fff;
      }

      .cls-5 {
        fill: none;
        stroke: #fff;
        stroke-width: 3px;
      }
    </style>
    <filter id="filter" filterUnits="userSpaceOnUse">
      <feFlood result="flood" flood-color="#fff"/>
      <feComposite result="composite" operator="in" in2="SourceGraphic"/>
      <feBlend result="blend" in2="SourceGraphic"/>
    </filter>
  </defs>
  <g class="cls-1">
    <path id="Shape_1_copy_2" data-name="Shape 1 copy 2" class="cls-2" d="M471.053,326H684.4L719.455,89.114l-138.24-21.6c-3.905,6.087-12.73,9.295-24.022,7.607-16.186-2.373-18.884-11.256-21.628-14.74l-0.872-.136a12.987,12.987,0,0,1-3.542.883c-2.028.025-10.051,0.308-12.02,0-3.591-.966-3.94-2.685-5.042-4.1l-9-1.406a4.79,4.79,0,0,1-4.993,3.51c-1.807-.1-10.287-0.729-12.019-1a4.93,4.93,0,0,1-4.037-5.8l-8.1-1.266a33.506,33.506,0,0,1-18.909,3.067,28.575,28.575,0,0,1-15.978-8.519L438,45.135Zm66.141-127.975a13.98,13.98,0,0,1-3.587,18.992,13.991,13.991,0,1,1,3.587-18.992h0Zm0,0,77.167-44.813a22.948,22.948,0,1,1,10.874-2.723S622.281,153.212,614.361,153.212ZM507.391,257.729a4.163,4.163,0,0,1-8.3-.411c-0.011-1.238.008-2.463,0.05-3.7a32.765,32.765,0,0,1,1.5-8.655,37.054,37.054,0,0,1,2.854-6.887,39.686,39.686,0,0,1,12.065-13.5A18.051,18.051,0,0,1,519.3,222.4a15.758,15.758,0,0,1,15.015,1.483,36.8,36.8,0,0,1,3.247,2.364,39.855,39.855,0,0,1,6.515,6.678,36.653,36.653,0,0,1,6.893,14.743,45.277,45.277,0,0,1,.857,9.655,4.162,4.162,0,0,1-8.3.411,29.734,29.734,0,0,0-4.12-13.095v4.489l9.26,37.332c0.416,1.611.691,3.275-2.457,3.275h-7.693l-1.43,31.174c-0.055,1.138.075,3.5,0.075,5.1h-9.014a46.722,46.722,0,0,1-.763-5.052l-1.73-31.218h-0.518L523.708,320.9c-0.044,1.3-.247,3.507-0.247,5.069-1.239.027-3.532,0.027-4.33,0.027h-5.008c0-1.95-.058-3.938-0.12-5.052l-1.728-31.218h-7.528a2.747,2.747,0,0,1-2.7-3.282l9.412-37.474v-4.258c-2.554,3.857-3.592,8.488-4.07,13.013h0Zm0,0,44.092,30.512-3.195-13.8-0.432-8.563a9.116,9.116,0,0,0,6.9-8.771,47.76,47.76,0,0,0-1.126-11.379,42.569,42.569,0,0,0-4.116-10.7,40.946,40.946,0,0,0-3.793-5.7,42.736,42.736,0,0,1-.142-4.707V184.616a74.477,74.477,0,0,0-4.608,13.6c-2.5-6.076-7.852-9.153-15.257-10.374a97.876,97.876,0,0,1,5.209-15.114,74.265,74.265,0,0,1,9.755-15.969,65.479,65.479,0,0,1,8.613-8.753,53.939,53.939,0,0,1,4.783-3.563A37.056,37.056,0,0,1,558.49,142c15.749-7.468,28.252,4.664,28.562,4.938q5.04,4.467,10.081,8.936A70.236,70.236,0,0,0,575.8,179.922a63.308,63.308,0,0,0-6.7,19.636,81.1,81.1,0,0,0-.946,13.985,11.929,11.929,0,0,0,11.9,11.681,11.772,11.772,0,0,0,2.826-.364s-8.834,32.163-9.336,34.217c-0.676,2.78-.908,8.563,5.545,8.563H589.8l0.819,14.439-1.475,35.254c-0.093,2.048-.492,5.5-0.9,8.667h-7.012c-2.678,0-6.48,0-8.012,0-0.325-2.768-.6-6.91-0.688-8.6l-2.989-59.063-2.468,58.99c-0.1,2.244-.533,4.662-0.867,8.669H559.2c-2.289,0-6.493,0-8.013,0,0-1.407-.615-6.521-0.72-8.6l-1.3-25.657c3.387-.264,2.319-3.506,2.319-3.506h0Zm0,0M580.352,265.1a4.119,4.119,0,0,1-3.183-1.5,3.894,3.894,0,0,1-.862-3.425l15.889-57.5v-9.1a41.4,41.4,0,0,0-5.024,11.7,62.41,62.41,0,0,0-1.645,9.626,6.821,6.821,0,0,1-13.6-.675c-0.016-2.184,0-4.355.107-6.54a58.035,58.035,0,0,1,1.226-8.936,59.418,59.418,0,0,1,6.669-17.478,65.421,65.421,0,0,1,18.6-20.416,36.471,36.471,0,0,1,5.948-3.623c0.186-.084.376-0.16,0.57-0.233a23.1,23.1,0,0,1,19.9-.1,27.057,27.057,0,0,1,6.169,3.514,65.359,65.359,0,0,1,18.745,20.045,58.1,58.1,0,0,1,4.184,8.457,52.858,52.858,0,0,1,2.766,8.874,84.77,84.77,0,0,1,1.368,9.066,70.618,70.618,0,0,1,.166,7.275c0,0.03,0,.063,0,0.1a6.821,6.821,0,0,1-13.6.673,62.309,62.309,0,0,0-1.644-9.623,42.6,42.6,0,0,0-5.107-11.832v8.542l15.936,58.206a4.12,4.12,0,0,1-4.05,4.91H636.61l-2.423,53.317c-0.1,2.066-.441,4.215-0.871,7.579-1.439,0-4.951,0-7.063.007-2.518.007-5.485-.007-6.96-0.007-0.533-3.166-.916-5.848-1.006-7.5L615.353,265.1h-0.665l-2.424,53.32c-0.1,2.01-.582,5.134-0.984,7.576-1.449,0-4.785,0-6.951.007-2.245.006-5.6-.007-7.072-0.007a69.09,69.09,0,0,1-.9-7.5L593.429,265.1H580.352Zm0,0M569.219,90.125a23.985,23.985,0,1,1-24.031,23.984A24.008,24.008,0,0,1,569.219,90.125Z"/>
  </g>
  <g id="Letras" class="cls-1">
    <path id="o" class="cls-3" d="M451.036,24.412q0.56-14.295,12-13.849T473.918,25.3q-0.564,14.391-12,13.945T451.036,24.412h0ZM471.524,48.32a21.2,21.2,0,0,0,7.793-4.741,22.352,22.352,0,0,0,5.113-7.632A29.37,29.37,0,0,0,486.513,25.8a29.767,29.767,0,0,0-1.281-10.331,21.1,21.1,0,0,0-11.853-13.29A26.685,26.685,0,0,0,463.45.01a27.339,27.339,0,0,0-10.213,1.379,21.327,21.327,0,0,0-13,12.417,29.441,29.441,0,0,0-2.081,10.1,29.9,29.9,0,0,0,1.24,10.138,21.075,21.075,0,0,0,11.9,13.436A27.351,27.351,0,0,0,461.5,49.707,26.781,26.781,0,0,0,471.524,48.32Z"/>
    <path id="n" class="cls-2" d="M530.97,57.193l2.841-32.618a17.724,17.724,0,0,0-.611-6.847,14.5,14.5,0,0,0-2.83-5.209A13.251,13.251,0,0,0,525.7,9.077a18.836,18.836,0,0,0-6.143-1.545,19.055,19.055,0,0,0-9.573,1.242,15.194,15.194,0,0,0-6.376,5.567l0.6-6.887L492.318,6.423l-4.1,47.061,12.461,1.081,2.349-26.974q0.942-10.808,10.623-9.969,4.409,0.382,6.064,2.454T520.9,27.6l-2.483,28.5Z"/>
    <path id="é" class="cls-3" d="M552.31,40.068a11.673,11.673,0,0,1,4.453-6.947,8.89,8.89,0,0,1,6.882-1.525,10.435,10.435,0,0,1,3.389,1.253,8.62,8.62,0,0,1,2.683,2.442,9.558,9.558,0,0,1,1.54,3.6,13.127,13.127,0,0,1,.077,4.65ZM582.6,53.6q2.545-13.884-1.727-21.789t-15.062-9.876a26.218,26.218,0,0,0-9.862-.093,19.353,19.353,0,0,0-7.925,3.482,21.33,21.33,0,0,0-5.769,6.657,29.921,29.921,0,0,0-3.3,9.451Q534.311,66.747,557.593,71a21.848,21.848,0,0,0,13.582-1.522,20.742,20.742,0,0,0,9.6-9.667l-12.682-2.316a6.314,6.314,0,0,1-3.683,3.281,10.492,10.492,0,0,1-5.6.393,9.522,9.522,0,0,1-6.763-4.456,13.459,13.459,0,0,1-1.535-8.967Zm0.169-42.526-3.028-8.557-21.687,7.85,1.981,5.73Z"/>
    <path id="a" class="cls-2" d="M617.121,43.464a8.972,8.972,0,0,1-1.392,3.845,10.9,10.9,0,0,1-6.586,4.71,12.085,12.085,0,0,1-4.541.268q-6.016-.734-5.374-5.976a5.7,5.7,0,0,1,2.577-4.425q2.2-1.375,7.681-1.772a51.077,51.077,0,0,0,5.4-.6,6.775,6.775,0,0,0,2.957-1.187Zm10.328,19.348,3.631-29.64a27.423,27.423,0,0,0-.088-7.991,13.725,13.725,0,0,0-2.679-6.227,15.267,15.267,0,0,0-5.77-4.331,31.357,31.357,0,0,0-9.255-2.386,33.425,33.425,0,0,0-9.7.027,16.689,16.689,0,0,0-6.765,2.609,12.881,12.881,0,0,0-4.176,4.811,21.4,21.4,0,0,0-2.011,6.526L602.2,27.618a8.99,8.99,0,0,1,2.958-4.766q2.1-1.678,6.394-1.155a11.276,11.276,0,0,1,5.62,1.991,4.006,4.006,0,0,1,1.711,3.836,4.027,4.027,0,0,1-2.061,3.376q-1.76.9-6.519,0.994t-8.824.423a21.826,21.826,0,0,0-7.138,1.693,12.184,12.184,0,0,0-5.067,4.17,17.114,17.114,0,0,0-2.61,7.855,12.3,12.3,0,0,0,2.635,9.752q3.333,4.034,11.452,5.024a22.357,22.357,0,0,0,8.586-.452,15.482,15.482,0,0,0,6.31-3.245,19.085,19.085,0,0,0,.25,4.287Z"/>
    <path id="m" class="cls-3" d="M698.453,79.26L704.079,47a15.9,15.9,0,0,0-2.534-11.794,14.757,14.757,0,0,0-4.446-4.183,17.379,17.379,0,0,0-6.24-2.3,15.554,15.554,0,0,0-7.888.433,12.651,12.651,0,0,0-6.006,4.756,27.148,27.148,0,0,0-2.06-3.866,13.751,13.751,0,0,0-2.392-2.8,10.414,10.414,0,0,0-3.1-1.853,21.546,21.546,0,0,0-4.152-1.111,17.513,17.513,0,0,0-8.259.32q-3.616,1.126-6.793,5.35l1.188-6.811-11.565-2.008L631.72,67.67l12.323,2.14,4.933-28.283q1.584-9.081,9.072-7.78a12.162,12.162,0,0,1,3.338,1.018,4.892,4.892,0,0,1,2.067,1.87,6.337,6.337,0,0,1,.785,3.06,23.64,23.64,0,0,1-.43,4.7l-4.883,28,12.323,2.14,4.85-27.81a11.313,11.313,0,0,1,3.465-6.707,6.986,6.986,0,0,1,6.135-1.858,6.4,6.4,0,0,1,4.846,3.571,11.36,11.36,0,0,1,.787,7.251l-4.917,28.188Z"/>
    <path id="i" class="cls-2" d="M722.489,75.128l4.032-47.07L713.6,26.992l-4.031,47.07ZM727,22.413L728,10.837,715.074,9.772l-0.991,11.576Z"/>
  </g>
  <path id="formación_y_desarrollo_familiar_de_nuevo_casas_grandes" data-name="formación y desarrollo familiar de nuevo casas grandes" class="cls-4" d="M43.079,416.493V404.927H14.3V390H47.219V378.531H0.6v65.643H14.3V416.493H43.079Zm21.636,12.8q-4.683-5.387-4.682-17.053t4.633-17.7q4.632-6.029,13.306-6.03t13.208,6.03q4.532,6.031,4.534,17.7a32.8,32.8,0,0,1-1.38,10.084,19.348,19.348,0,0,1-3.795,6.969,15.245,15.245,0,0,1-5.668,4.054,18.015,18.015,0,0,1-6.9,1.334Q69.4,434.683,64.715,429.3Zm36.469,8.552q8.032-8.6,8.033-25.6a50.829,50.829,0,0,0-2.07-15.076,31.853,31.853,0,0,0-6.012-11.319,25.351,25.351,0,0,0-9.807-7.069,34.748,34.748,0,0,0-13.356-2.422,34.643,34.643,0,0,0-13.4,2.422,26.5,26.5,0,0,0-9.856,7.019A30.527,30.527,0,0,0,48.6,397.018a49.965,49.965,0,0,0-2.07,14.928q0,16.707,8.132,25.6t23.311,8.9Q93.149,446.447,101.184,437.847ZM144.4,389.9q5.124,0,7.343,2.472a9.111,9.111,0,0,1,2.218,6.326,8.86,8.86,0,0,1-2.267,6.229q-2.268,2.472-7.787,2.471H126.76V389.9H144.4ZM165,444.174V425.588q0-5.732-1.823-8.6a10.862,10.862,0,0,0-6.16-4.251,13.507,13.507,0,0,0,7.244-5.783,17.7,17.7,0,0,0,2.514-9.441,19.885,19.885,0,0,0-1.43-7.563,17.077,17.077,0,0,0-4.09-6.03,19.238,19.238,0,0,0-6.357-3.954,22.619,22.619,0,0,0-8.231-1.434H113.454v65.643H126.76v-25.7h14.588q5.913,0,8.082,2.027t2.169,6.772v16.9H165Zm68.9,0V378.531H214.187l-11.828,48.145-11.828-48.145H170.424v65.643h12.715V399.391l12.124,44.783h13.6l12.223-44.981v44.981H233.9Zm42.382-24.814H259.624l8.378-26.1h0.1Zm22.965,24.814-23.064-65.643H260.314l-23.36,65.643h14.489l4.633-13.544h24.148l4.14,13.544h14.883Zm40.215-22.54q-1.381,6.228-5.076,9.54t-9.807,3.311q-7.985,0-11.976-6.079t-3.992-17.054q0-10.773,4.041-16.954t12.617-6.179a13.947,13.947,0,0,1,8.871,3.114,15.416,15.416,0,0,1,5.322,8.75h13.7a27.265,27.265,0,0,0-2.612-9.293,24.367,24.367,0,0,0-5.717-7.563,26.443,26.443,0,0,0-8.575-5.042,31.992,31.992,0,0,0-11.089-1.829,31.375,31.375,0,0,0-12.666,2.472,26.367,26.367,0,0,0-9.61,7.068,31.888,31.888,0,0,0-6.061,11.27,49.33,49.33,0,0,0-2.119,14.977,43.5,43.5,0,0,0,2.316,14.879,31.127,31.127,0,0,0,6.357,10.726,25.676,25.676,0,0,0,9.61,6.524,32.644,32.644,0,0,0,11.976,2.175,29.479,29.479,0,0,0,10.448-1.779,25.783,25.783,0,0,0,8.329-5.042,27.68,27.68,0,0,0,5.963-7.81,37.177,37.177,0,0,0,3.45-10.182h-13.7Zm30.159,22.54V378.531h-13.7v65.643h13.7ZM391.945,429.3q-4.681-5.387-4.682-17.053t4.633-17.7q4.632-6.029,13.306-6.03t13.208,6.03q4.533,6.031,4.534,17.7a32.815,32.815,0,0,1-1.38,10.084,19.34,19.34,0,0,1-3.8,6.969,15.247,15.247,0,0,1-5.667,4.054,18.016,18.016,0,0,1-6.9,1.334Q396.628,434.683,391.945,429.3Zm36.469,8.552q8.033-8.6,8.033-25.6a50.83,50.83,0,0,0-2.069-15.076,31.855,31.855,0,0,0-6.013-11.319,25.347,25.347,0,0,0-9.807-7.069,38.172,38.172,0,0,0-26.761,0,26.506,26.506,0,0,0-9.856,7.019,30.53,30.53,0,0,0-6.111,11.221,49.962,49.962,0,0,0-2.07,14.928q0,16.707,8.132,25.6t23.31,8.9Q420.381,446.447,428.414,437.847Zm-7.836-74.738L415.946,355l-20.4,11.962L398.6,372.4Zm73.43,81.065V378.531H481.194v42.213l-26.021-42.213H440.684v65.643H453.4V400.083l27.993,44.091h12.616Zm64.165,0V419.558l21.881-41.027h-15.77l-12.715,26.692-13.8-26.692H521.8l22.67,40.829v24.814h13.7ZM621.252,433V389.9H631.4a27.007,27.007,0,0,1,8.378,1.137,12.65,12.65,0,0,1,5.668,3.658,15.2,15.2,0,0,1,3.2,6.475,39.766,39.766,0,0,1,.986,9.49q0,11.173-4.041,16.757T632.587,433H621.252Zm14.1,11.171a27.086,27.086,0,0,0,11.532-2.422,26.031,26.031,0,0,0,8.969-6.822,30.921,30.921,0,0,0,5.766-10.578,43.894,43.894,0,0,0,2.021-13.692,37.456,37.456,0,0,0-2.267-13.444,29.588,29.588,0,0,0-6.259-10.084,26.834,26.834,0,0,0-9.61-6.376,32.909,32.909,0,0,0-12.222-2.225H607.946v65.643h27.4Zm82.1,0V432.508H681.08V415.6h32.033V404.037H681.08V390h34.793V378.531h-48.1v65.643H717.45Zm52.83-46.266a22.883,22.883,0,0,0-2.07-8.848,19.473,19.473,0,0,0-5.273-6.822,24.356,24.356,0,0,0-8.131-4.349,34.48,34.48,0,0,0-10.645-1.533,32.847,32.847,0,0,0-10.6,1.533,22.722,22.722,0,0,0-7.54,4.152,16.288,16.288,0,0,0-4.534,6.178,19.642,19.642,0,0,0-1.479,7.613,20.169,20.169,0,0,0,1.676,8.8,15.032,15.032,0,0,0,5.224,5.882,32.346,32.346,0,0,0,9.018,4.053q5.471,1.632,12.962,3.213a29.614,29.614,0,0,1,5.125,1.533,10.284,10.284,0,0,1,3.1,1.927,5.541,5.541,0,0,1,1.528,2.422,10.334,10.334,0,0,1,.394,2.917A7.476,7.476,0,0,1,755.693,433q-3.352,2.372-9.857,2.372a16.5,16.5,0,0,1-10-2.916,9.577,9.577,0,0,1-4.091-7.958H718.534q0.391,10.875,7.589,16.41t21.487,5.536a33.714,33.714,0,0,0,9.561-1.334,24.477,24.477,0,0,0,7.885-3.856,18.837,18.837,0,0,0,5.323-6.178,17.437,17.437,0,0,0,1.971-8.4,24.856,24.856,0,0,0-.788-6.723,16.622,16.622,0,0,0-2.12-4.745,12.469,12.469,0,0,0-3.252-3.312,21.367,21.367,0,0,0-4.091-2.224,63.705,63.705,0,0,0-8.476-2.966q-4.635-1.284-10.941-2.768-5.322-1.284-7.737-3.213a5.9,5.9,0,0,1-2.415-4.8q0-8.007,11.631-8.007,6.306,0,9.462,2.471t3.647,7.514h13.01ZM810,419.36H793.345l8.378-26.1h0.1Zm22.966,24.814L809.9,378.531H794.035l-23.36,65.643h14.489L789.8,430.63h24.148l4.14,13.544h14.884Zm34-54.274q5.124,0,7.343,2.472a9.111,9.111,0,0,1,2.218,6.326,8.864,8.864,0,0,1-2.267,6.229Q872,407.4,866.479,407.4h-17.15V389.9h17.643Zm20.6,54.274V425.588q0-5.732-1.824-8.6a10.855,10.855,0,0,0-6.16-4.251,13.513,13.513,0,0,0,7.245-5.783,17.708,17.708,0,0,0,2.513-9.441,19.884,19.884,0,0,0-1.429-7.563,17.066,17.066,0,0,0-4.091-6.03,19.238,19.238,0,0,0-6.357-3.954,22.609,22.609,0,0,0-8.23-1.434H836.022v65.643h13.307v-25.7h14.587q5.914,0,8.083,2.027t2.168,6.772v16.9h13.4Zm36.37-54.274q5.124,0,7.343,2.472A9.111,9.111,0,0,1,933.5,398.7a8.86,8.86,0,0,1-2.267,6.229q-2.268,2.472-7.787,2.471H906.3V389.9h17.643Zm20.6,54.274V425.588q0-5.732-1.823-8.6a10.862,10.862,0,0,0-6.16-4.251,13.507,13.507,0,0,0,7.244-5.783,17.7,17.7,0,0,0,2.514-9.441,19.885,19.885,0,0,0-1.43-7.563,17.077,17.077,0,0,0-4.09-6.03,19.232,19.232,0,0,0-6.358-3.954,22.609,22.609,0,0,0-8.23-1.434H892.993v65.643H906.3v-25.7h14.588q5.913,0,8.082,2.027t2.169,6.772v16.9h13.4ZM967.36,429.3q-4.683-5.387-4.682-17.053t4.633-17.7q4.63-6.029,13.306-6.03t13.208,6.03q4.531,6.031,4.534,17.7a32.815,32.815,0,0,1-1.38,10.084,19.355,19.355,0,0,1-3.8,6.969,15.242,15.242,0,0,1-5.668,4.054,18.011,18.011,0,0,1-6.9,1.334Q972.042,434.683,967.36,429.3Zm36.47,8.552q8.025-8.6,8.03-25.6a50.829,50.829,0,0,0-2.07-15.076,31.8,31.8,0,0,0-6.01-11.319,25.358,25.358,0,0,0-9.808-7.069,38.169,38.169,0,0,0-26.76,0,26.5,26.5,0,0,0-9.857,7.019,30.53,30.53,0,0,0-6.111,11.221,50,50,0,0,0-2.069,14.928q0,16.707,8.131,25.6t23.311,8.9Q995.794,446.447,1003.83,437.847Zm58.4,6.327V432.212H1029.8V378.531h-13.7v65.643h46.13Zm49.38,0V432.212h-32.43V378.531h-13.7v65.643h46.13Zm16.9-14.879q-4.68-5.387-4.68-17.053t4.63-17.7q4.635-6.029,13.31-6.03t13.2,6.03q4.545,6.031,4.54,17.7a32.784,32.784,0,0,1-1.38,10.084,19.331,19.331,0,0,1-3.8,6.969,15.279,15.279,0,0,1-5.66,4.054,18.024,18.024,0,0,1-6.9,1.334Q1133.19,434.683,1128.51,429.3Zm36.47,8.552q8.025-8.6,8.03-25.6a50.829,50.829,0,0,0-2.07-15.076,31.8,31.8,0,0,0-6.01-11.319,25.357,25.357,0,0,0-9.81-7.069,38.169,38.169,0,0,0-26.76,0,26.428,26.428,0,0,0-9.85,7.019,30.472,30.472,0,0,0-6.12,11.221,49.962,49.962,0,0,0-2.07,14.928q0,16.707,8.14,25.6t23.31,8.9Q1156.95,446.447,1164.98,437.847ZM31.569,489.75v-8.592H10.191V470.07H34.645v-8.518H0.014v48.759H10.191V489.75H31.569ZM56.9,491.879H44.529l6.223-19.386h0.073Zm17.059,18.432L56.829,461.552H45.041L27.69,510.311H38.452l3.441-10.061H59.83l3.075,10.061H73.961Zm49.417,0V461.552H108.736L99.95,497.313l-8.786-35.761H76.229v48.759h9.445V477.046l9.005,33.265h10.1l9.079-33.412v33.412h9.517Zm13.91,0V461.552H127.111v48.759h10.177Zm37.924,0v-8.886H151.125V461.552H140.948v48.759h34.264Zm12.592,0V461.552H177.627v48.759H187.8Zm31.407-18.432H206.838l6.224-19.386h0.073Zm17.059,18.432-17.132-48.759H207.351L190,510.311h10.763L204.2,500.25H222.14l3.075,10.061H236.27ZM261.528,470q3.805,0,5.454,1.835a6.775,6.775,0,0,1,1.647,4.7,6.576,6.576,0,0,1-1.684,4.626q-1.685,1.836-5.783,1.836h-12.74V470h13.106Zm15.3,40.314V496.505q0-4.257-1.354-6.388a8.066,8.066,0,0,0-4.576-3.158,10.039,10.039,0,0,0,5.381-4.3,13.149,13.149,0,0,0,1.867-7.013,14.772,14.772,0,0,0-1.062-5.618,12.674,12.674,0,0,0-3.038-4.479,14.3,14.3,0,0,0-4.722-2.937,16.8,16.8,0,0,0-6.113-1.065H238.539v48.759h9.883V491.218h10.836q4.394,0,6,1.506t1.61,5.03v12.557h9.957Zm32.36-8.3V470h7.541a20.07,20.07,0,0,1,6.223.844,9.4,9.4,0,0,1,4.21,2.717,11.274,11.274,0,0,1,2.379,4.81,29.492,29.492,0,0,1,.733,7.049q0,8.3-3,12.447t-9.664,4.149h-8.42Zm10.47,8.3a20.114,20.114,0,0,0,8.566-1.8,19.34,19.34,0,0,0,6.662-5.067,22.991,22.991,0,0,0,4.283-7.857,32.6,32.6,0,0,0,1.5-10.171,27.826,27.826,0,0,0-1.684-9.986,21.979,21.979,0,0,0-4.649-7.491A19.951,19.951,0,0,0,327.2,463.2a24.455,24.455,0,0,0-9.078-1.652H299.305v48.759h20.354Zm60.986,0v-8.665H353.629V489.089h23.794V480.5H353.629V470.07h25.844v-8.518H343.745v48.759h36.9Zm60.107,0V461.552h-9.518v31.355l-19.328-31.355H401.143v48.759h9.445V477.56l20.792,32.751h9.372Zm32.433-16.229q0,9.472-9.737,9.473a8.027,8.027,0,0,1-6.443-2.644,10.674,10.674,0,0,1-2.27-7.2V461.552H444.412V494.67q0,8.811,5.162,13.071T463.594,512q9.591,0,14.789-4.516t5.2-13.4v-32.53h-10.4v32.53Zm51.03,16.229v-8.665H497.2V489.089h23.794V480.5H497.2V470.07h25.844v-8.518H487.315v48.759h36.9Zm26.649,0,16.473-48.759H556.794l-10.543,34.219-10.616-34.219H524.8l16.473,48.759h9.591Zm28.37-11.052q-3.477-4-3.477-12.667t3.441-13.144q3.44-4.479,9.884-4.48t9.81,4.48q3.367,4.479,3.368,13.144a24.362,24.362,0,0,1-1.025,7.49,14.357,14.357,0,0,1-2.819,5.177,11.325,11.325,0,0,1-4.209,3.011,13.371,13.371,0,0,1-5.125.991Q582.712,503.261,579.234,499.259Zm27.089,6.352q5.967-6.389,5.967-19.019a37.754,37.754,0,0,0-1.537-11.2,23.656,23.656,0,0,0-4.466-8.408A18.836,18.836,0,0,0,599,461.735a28.352,28.352,0,0,0-19.877,0,19.689,19.689,0,0,0-7.322,5.214,22.672,22.672,0,0,0-4.539,8.335,37.113,37.113,0,0,0-1.538,11.088q0,12.411,6.041,19.019T589.082,512Q600.354,512,606.323,505.611Zm60.217-12.043a12.958,12.958,0,0,1-3.771,7.086,10.5,10.5,0,0,1-7.284,2.46q-5.931,0-8.9-4.516t-2.965-12.667q0-8,3-12.593t9.371-4.59a10.358,10.358,0,0,1,6.589,2.313,11.446,11.446,0,0,1,3.954,6.5h10.177a20.252,20.252,0,0,0-1.941-6.9,18.1,18.1,0,0,0-4.246-5.617,19.624,19.624,0,0,0-6.37-3.745,23.751,23.751,0,0,0-8.236-1.359,23.309,23.309,0,0,0-9.408,1.836,19.564,19.564,0,0,0-7.138,5.251,23.671,23.671,0,0,0-4.5,8.371,36.65,36.65,0,0,0-1.574,11.125,32.321,32.321,0,0,0,1.72,11.051,23.133,23.133,0,0,0,4.723,7.968,19.077,19.077,0,0,0,7.138,4.846,24.25,24.25,0,0,0,8.9,1.616,21.894,21.894,0,0,0,7.761-1.322,19.164,19.164,0,0,0,6.187-3.745,20.55,20.55,0,0,0,4.429-5.8,27.633,27.633,0,0,0,2.563-7.564H666.54Zm36.753-1.689H690.92l6.223-19.386h0.073Zm17.059,18.432L703.22,461.552H691.432l-17.351,48.759h10.762l3.441-10.061h17.937l3.075,10.061h11.056Zm37.192-34.366a17.023,17.023,0,0,0-1.538-6.573,14.461,14.461,0,0,0-3.917-5.066,18.072,18.072,0,0,0-6.04-3.231,25.59,25.59,0,0,0-7.907-1.139,24.379,24.379,0,0,0-7.87,1.139,16.87,16.87,0,0,0-5.6,3.084,12.1,12.1,0,0,0-3.368,4.589,14.6,14.6,0,0,0-1.1,5.654,14.992,14.992,0,0,0,1.244,6.536,11.183,11.183,0,0,0,3.881,4.369,24.06,24.06,0,0,0,6.7,3.011q4.064,1.212,9.627,2.386a21.94,21.94,0,0,1,3.807,1.139,7.645,7.645,0,0,1,2.307,1.431,4.107,4.107,0,0,1,1.134,1.8,7.624,7.624,0,0,1,.293,2.166,5.552,5.552,0,0,1-2.489,4.773q-2.49,1.762-7.321,1.762a12.255,12.255,0,0,1-7.431-2.166,7.114,7.114,0,0,1-3.039-5.911h-9.811q0.293,8.078,5.638,12.189T740.705,512a25.016,25.016,0,0,0,7.1-.992,18.175,18.175,0,0,0,5.857-2.864,13.989,13.989,0,0,0,3.954-4.589,12.952,12.952,0,0,0,1.464-6.242,18.417,18.417,0,0,0-.586-4.993,12.352,12.352,0,0,0-1.574-3.525,9.257,9.257,0,0,0-2.416-2.46,15.923,15.923,0,0,0-3.038-1.652,47.458,47.458,0,0,0-6.3-2.2q-3.443-.954-8.127-2.056a15.077,15.077,0,0,1-5.747-2.387,4.383,4.383,0,0,1-1.794-3.561q0-5.947,8.639-5.948,4.684,0,7.029,1.836a7.668,7.668,0,0,1,2.709,5.581h9.664Zm29.5,15.934H774.676l6.223-19.386h0.073Zm17.059,18.432-17.132-48.759H775.189l-17.352,48.759H768.6l3.441-10.061h17.938l3.075,10.061h11.055ZM841.3,475.945a17.022,17.022,0,0,0-1.537-6.573,14.472,14.472,0,0,0-3.917-5.066,18.082,18.082,0,0,0-6.04-3.231,25.6,25.6,0,0,0-7.908-1.139,24.379,24.379,0,0,0-7.87,1.139,16.87,16.87,0,0,0-5.6,3.084,12.106,12.106,0,0,0-3.368,4.589,14.6,14.6,0,0,0-1.1,5.654,14.977,14.977,0,0,0,1.245,6.536,11.172,11.172,0,0,0,3.88,4.369,24.06,24.06,0,0,0,6.7,3.011q4.064,1.212,9.628,2.386a21.994,21.994,0,0,1,3.807,1.139,7.639,7.639,0,0,1,2.306,1.431,4.119,4.119,0,0,1,1.135,1.8,7.66,7.66,0,0,1,.293,2.166,5.553,5.553,0,0,1-2.49,4.773q-2.49,1.762-7.321,1.762a12.257,12.257,0,0,1-7.431-2.166,7.117,7.117,0,0,1-3.039-5.911h-9.81q0.291,8.078,5.637,12.189T824.461,512a25.028,25.028,0,0,0,7.1-.992,18.185,18.185,0,0,0,5.857-2.864,14,14,0,0,0,3.953-4.589,12.952,12.952,0,0,0,1.464-6.242,18.46,18.46,0,0,0-.585-4.993,12.38,12.38,0,0,0-1.574-3.525,9.272,9.272,0,0,0-2.416-2.46,15.932,15.932,0,0,0-3.039-1.652,47.357,47.357,0,0,0-6.3-2.2q-3.443-.954-8.127-2.056a15.084,15.084,0,0,1-5.747-2.387,4.383,4.383,0,0,1-1.794-3.561q0-5.947,8.639-5.948,4.684,0,7.029,1.836a7.668,7.668,0,0,1,2.709,5.581H841.3Zm67.136,34.366V484.1h-20.28v8.151h10.762a10.286,10.286,0,0,1-.915,4.3,11.428,11.428,0,0,1-2.526,3.562,11.9,11.9,0,0,1-3.77,2.423,12.2,12.2,0,0,1-4.649.881,11.563,11.563,0,0,1-6.077-1.542,13.16,13.16,0,0,1-4.21-4,17.516,17.516,0,0,1-2.416-5.507,24.713,24.713,0,0,1-.769-6.059q0-8.737,3.7-13.327a12.006,12.006,0,0,1,9.847-4.59,12.286,12.286,0,0,1,3.99.661,12.15,12.15,0,0,1,3.4,1.762,9.839,9.839,0,0,1,2.416,2.607,7.825,7.825,0,0,1,1.171,3.194h10.25a16.125,16.125,0,0,0-2.013-6.719,17.628,17.628,0,0,0-4.54-5.25,21.65,21.65,0,0,0-6.589-3.451,25.594,25.594,0,0,0-8.09-1.249,25.017,25.017,0,0,0-10.4,2.02,21.035,21.035,0,0,0-7.468,5.544,24.006,24.006,0,0,0-4.539,8.261,32.512,32.512,0,0,0-1.538,10.1,31.552,31.552,0,0,0,1.538,9.8,26.367,26.367,0,0,0,4.429,8.371,22.058,22.058,0,0,0,6.955,5.8A19.073,19.073,0,0,0,885.227,512a21.794,21.794,0,0,0,8.932-1.726,11.659,11.659,0,0,0,5.638-4.81l0.22,4.847h8.419ZM941.015,470q3.807,0,5.455,1.835a6.775,6.775,0,0,1,1.647,4.7,6.576,6.576,0,0,1-1.684,4.626q-1.685,1.836-5.784,1.836H927.91V470h13.105Zm15.3,40.314V496.505q0-4.257-1.354-6.388a8.066,8.066,0,0,0-4.576-3.158,10.039,10.039,0,0,0,5.381-4.3,13.149,13.149,0,0,0,1.867-7.013,14.772,14.772,0,0,0-1.062-5.618,12.674,12.674,0,0,0-3.038-4.479,14.3,14.3,0,0,0-4.722-2.937,16.808,16.808,0,0,0-6.114-1.065H918.026v48.759h9.884V491.218h10.836q4.392,0,6,1.506t1.611,5.03v12.557h9.957Zm31.774-18.432H975.718l6.224-19.386h0.073Zm17.059,18.432-17.132-48.759H976.231l-17.352,48.759h10.763l3.441-10.061H991.02l3.075,10.061h11.055Zm41.88,0V461.552h-9.52v31.355l-19.33-31.355h-10.76v48.759h9.44V477.56l20.8,32.751h9.37Zm13.54-8.3V470h7.54a20.121,20.121,0,0,1,6.23.844,9.455,9.455,0,0,1,4.21,2.717,11.265,11.265,0,0,1,2.37,4.81,29.359,29.359,0,0,1,.74,7.049q0,8.3-3,12.447-3.015,4.149-9.67,4.149h-8.42Zm10.47,8.3a20.148,20.148,0,0,0,8.57-1.8,19.427,19.427,0,0,0,6.66-5.067,23.036,23.036,0,0,0,4.28-7.857,32.606,32.606,0,0,0,1.5-10.171,27.871,27.871,0,0,0-1.68-9.986,21.889,21.889,0,0,0-4.65-7.491,20.007,20.007,0,0,0-7.14-4.736,24.454,24.454,0,0,0-9.08-1.652h-18.81v48.759h20.35Zm60.99,0v-8.665h-27.02V489.089h23.8V480.5h-23.8V470.07h25.85v-8.518h-35.73v48.759h36.9Zm39.24-34.366a16.988,16.988,0,0,0-1.54-6.573,14.422,14.422,0,0,0-3.92-5.066,17.966,17.966,0,0,0-6.04-3.231,25.526,25.526,0,0,0-7.9-1.139,24.366,24.366,0,0,0-7.87,1.139,16.864,16.864,0,0,0-5.6,3.084,12.017,12.017,0,0,0-3.37,4.589,14.636,14.636,0,0,0-1.1,5.654,15,15,0,0,0,1.24,6.536,11.235,11.235,0,0,0,3.88,4.369,24.229,24.229,0,0,0,6.7,3.011q4.065,1.212,9.63,2.386a22.147,22.147,0,0,1,3.81,1.139,7.653,7.653,0,0,1,2.3,1.431,4.077,4.077,0,0,1,1.14,1.8,7.809,7.809,0,0,1,.29,2.166,5.55,5.55,0,0,1-2.49,4.773q-2.49,1.762-7.32,1.762a12.256,12.256,0,0,1-7.43-2.166,7.112,7.112,0,0,1-3.04-5.911h-9.81q0.3,8.078,5.64,12.189T1154.43,512a24.978,24.978,0,0,0,7.1-.992,18.141,18.141,0,0,0,5.86-2.864,13.884,13.884,0,0,0,3.95-4.589,12.909,12.909,0,0,0,1.47-6.242,18.444,18.444,0,0,0-.59-4.993,12.294,12.294,0,0,0-1.57-3.525,9.317,9.317,0,0,0-2.42-2.46,15.673,15.673,0,0,0-3.04-1.652,47.313,47.313,0,0,0-6.29-2.2q-3.45-.954-8.13-2.056a15.1,15.1,0,0,1-5.75-2.387,4.4,4.4,0,0,1-1.79-3.561q0-5.947,8.64-5.948,4.68,0,7.03,1.836a7.647,7.647,0,0,1,2.7,5.581h9.67Z"/>
  <path class="cls-5" d="M1173,356H433"/>
  <path id="Shape_4_copy" data-name="Shape 4 copy" class="cls-5" d="M387,356H0"/>
</svg>
