<?xml version="1.0" encoding="UTF-8" standalone="no"?>
<!-- Created with Inkscape (http://www.inkscape.org/) -->

<svg
   xmlns:dc="http://purl.org/dc/elements/1.1/"
   xmlns:cc="http://creativecommons.org/ns#"
   xmlns:rdf="http://www.w3.org/1999/02/22-rdf-syntax-ns#"
   xmlns:svg="http://www.w3.org/2000/svg"
   xmlns="http://www.w3.org/2000/svg"
   xmlns:sodipodi="http://sodipodi.sourceforge.net/DTD/sodipodi-0.dtd"
   xmlns:inkscape="http://www.inkscape.org/namespaces/inkscape"
   width="436"
   height="434"
   viewBox="0 0 115.35905 114.82945"
   version="1.1"
   id="svg8"
   sodipodi:docname="platica.svg"
   inkscape:version="0.92.2 5c3e80d, 2017-08-06">
  <defs
     id="defs2" />
  <sodipodi:namedview
     id="base"
     pagecolor="#ffffff"
     bordercolor="#666666"
     borderopacity="1.0"
     inkscape:pageopacity="0.0"
     inkscape:pageshadow="2"
     inkscape:zoom="0.98994949"
     inkscape:cx="371.7365"
     inkscape:cy="221.0772"
     inkscape:document-units="mm"
     inkscape:current-layer="layer1"
     showgrid="false"
     units="px"
     inkscape:window-width="1600"
     inkscape:window-height="844"
     inkscape:window-x="0"
     inkscape:window-y="0"
     inkscape:window-maximized="1" />
  <metadata
     id="metadata5">
    <rdf:RDF>
      <cc:Work
         rdf:about="">
        <dc:format>image/svg+xml</dc:format>
        <dc:type
           rdf:resource="http://purl.org/dc/dcmitype/StillImage" />
        <dc:title></dc:title>
      </cc:Work>
    </rdf:RDF>
  </metadata>
  <g
     inkscape:label="Layer 1"
     inkscape:groupmode="layer"
     id="layer1"
     transform="translate(0,-182.16987)">
    <g
       id="g4754"
       transform="matrix(0.38786257,0,0,0.38786257,0.15312795,182.00628)"
       style="fill:#353895;fill-opacity:1">
      <path
         id="path4740"
         d="m 148.5,71.388 c 19.49,0 35.346,-15.857 35.346,-35.346 0,-19.489 -15.856,-35.346 -35.346,-35.346 -19.49,0 -35.346,15.857 -35.346,35.346 0,19.489 15.856,35.346 35.346,35.346 z"
         inkscape:connector-curvature="0"
         style="fill:#353895;fill-opacity:1" />
      <path
         id="path4742"
         d="m 155.932,82.821 c -0.786,-0.856 -1.935,-1.287 -3.097,-1.287 h -8.67 c -1.162,0 -2.311,0.431 -3.097,1.287 -1.217,1.326 -1.393,3.241 -0.53,4.738 l 4.634,6.987 -2.17,18.302 4.272,11.365 c 0.417,1.143 2.033,1.143 2.45,0 l 4.272,-11.365 -2.17,-18.302 4.634,-6.987 c 0.866,-1.497 0.689,-3.413 -0.528,-4.738 z"
         inkscape:connector-curvature="0"
         style="fill:#353895;fill-opacity:1" />
      <path
         id="path4744"
         d="m 94.069,164.469 h 108.86 c 2.776,0 5.035,-2.259 5.035,-5.035 v -45.353 c 0,-13.214 -8.566,-24.948 -21.316,-29.197 l -9.94,-3.051 c -1.819,-0.562 -3.757,0.404 -4.41,2.194 L 148.5,149.323 124.702,84.026 c -0.528,-1.446 -1.893,-2.353 -3.356,-2.353 -0.348,0 -0.702,0.051 -1.05,0.159 l -9.864,3.026 c -12.831,4.276 -21.397,16.009 -21.397,29.223 v 45.353 c 0,2.776 2.259,5.035 5.034,5.035 z"
         inkscape:connector-curvature="0"
         style="fill:#353895;fill-opacity:1" />
      <path
         id="path4746"
         d="m 35.345,89.454 c 19.49,0 35.346,-15.856 35.346,-35.345 0,-19.49 -15.857,-35.346 -35.346,-35.346 C 15.856,18.763 0,34.62 0,54.109 0,73.599 15.856,89.454 35.345,89.454 Z"
         inkscape:connector-curvature="0"
         style="fill:#353895;fill-opacity:1" />
      <path
         id="path4748"
         d="M 95.511,186.619 H 67.359 V 131.014 C 67.359,113.333 53.026,99 35.346,99 17.666,99 3.333,113.333 3.333,131.013 v 75.535 c 0,16.975 13.761,30.736 30.736,30.736 h 36.527 v 50.333 c 0,4.798 3.889,8.687 8.687,8.687 h 33.725 c 4.798,0 8.687,-3.889 8.687,-8.687 v -74.814 c 0,-14.461 -11.723,-26.184 -26.184,-26.184 z"
         inkscape:connector-curvature="0"
         style="fill:#353895;fill-opacity:1" />
      <path
         id="path4750"
         d="m 261.655,89.454 c 19.49,0 35.345,-15.856 35.345,-35.345 0,-19.49 -15.856,-35.346 -35.345,-35.346 -19.489,0 -35.346,15.857 -35.346,35.346 -0.001,19.49 15.856,35.345 35.346,35.345 z"
         inkscape:connector-curvature="0"
         style="fill:#353895;fill-opacity:1" />
      <path
         id="path4752"
         d="m 261.654,99 c -17.681,0 -32.013,14.333 -32.013,32.013 v 55.605 H 201.49 c -14.461,0 -26.184,11.723 -26.184,26.184 v 74.814 c 0,4.798 3.889,8.687 8.687,8.687 h 33.725 c 4.798,0 8.687,-3.889 8.687,-8.687 v -50.333 h 36.527 c 16.975,0 30.736,-13.761 30.736,-30.736 V 131.012 C 293.668,113.333 279.335,99 261.654,99 Z"
         inkscape:connector-curvature="0"
         style="fill:#353895;fill-opacity:1" />
    </g>
  </g>
</svg>
