<?xml version="1.0" encoding="UTF-8" standalone="no"?>
<!-- Created with Inkscape (http://www.inkscape.org/) -->

<svg
   xmlns:dc="http://purl.org/dc/elements/1.1/"
   xmlns:cc="http://creativecommons.org/ns#"
   xmlns:rdf="http://www.w3.org/1999/02/22-rdf-syntax-ns#"
   xmlns:svg="http://www.w3.org/2000/svg"
   xmlns="http://www.w3.org/2000/svg"
   xmlns:sodipodi="http://sodipodi.sourceforge.net/DTD/sodipodi-0.dtd"
   xmlns:inkscape="http://www.inkscape.org/namespaces/inkscape"
   width="436"
   height="434"
   viewBox="0 0 115.35905 114.82945"
   version="1.1"
   id="svg8"
   sodipodi:docname="workshop.svg"
   inkscape:version="0.92.2 5c3e80d, 2017-08-06">
  <defs
     id="defs2" />
  <sodipodi:namedview
     id="base"
     pagecolor="#ffffff"
     bordercolor="#666666"
     borderopacity="1.0"
     inkscape:pageopacity="0.0"
     inkscape:pageshadow="2"
     inkscape:zoom="1.4"
     inkscape:cx="185.81035"
     inkscape:cy="258.48036"
     inkscape:document-units="mm"
     inkscape:current-layer="layer1"
     showgrid="false"
     units="px"
     inkscape:window-width="1600"
     inkscape:window-height="844"
     inkscape:window-x="0"
     inkscape:window-y="0"
     inkscape:window-maximized="1" />
  <metadata
     id="metadata5">
    <rdf:RDF>
      <cc:Work
         rdf:about="">
        <dc:format>image/svg+xml</dc:format>
        <dc:type
           rdf:resource="http://purl.org/dc/dcmitype/StillImage" />
        <dc:title></dc:title>
      </cc:Work>
    </rdf:RDF>
  </metadata>
  <g
     inkscape:label="Layer 1"
     inkscape:groupmode="layer"
     id="layer1"
     transform="translate(0,-182.16987)">
    <g
       id="g5003"
       transform="matrix(0.2240279,0,0,0.2240279,-0.09471882,182.2605)"
       style="fill:#353895;fill-opacity:1">
      <g
         id="g4838"
         style="fill:#353895;fill-opacity:1">
        <g
           id="g4836"
           style="fill:#353895;fill-opacity:1">
          <path
             id="path4834"
             d="M 467.309,16.768 H 221.454 c -6.128,0 -11.095,4.967 -11.095,11.095 v 86.451 l 12.305,-7.64 c 3.131,-1.945 6.475,-3.257 9.884,-3.978 V 38.958 H 456.213 V 198.974 H 232.549 v -25.89 l -22.19,13.778 v 23.208 c 0,6.128 4.967,11.095 11.095,11.095 h 245.855 c 6.127,0 11.095,-4.967 11.095,-11.095 V 27.863 c 0,-6.128 -4.968,-11.095 -11.095,-11.095 z"
             inkscape:connector-curvature="0"
             style="fill:#353895;fill-opacity:1" />
        </g>
      </g>
      <g
         id="g4844"
         style="fill:#353895;fill-opacity:1">
        <g
           id="g4842"
           style="fill:#353895;fill-opacity:1">
          <path
             id="path4840"
             d="m 306.001,78.356 c -2.919,-3.702 -8.285,-4.335 -11.986,-1.418 l -38.217,30.133 c 3.649,2.385 6.85,5.58 9.301,9.527 0.695,1.117 1.298,2.266 1.834,3.431 l 37.651,-29.687 c 3.702,-2.918 4.336,-8.285 1.417,-11.986 z"
             inkscape:connector-curvature="0"
             style="fill:#353895;fill-opacity:1" />
        </g>
      </g>
      <g
         id="g4850"
         style="fill:#353895;fill-opacity:1">
        <g
           id="g4848"
           style="fill:#353895;fill-opacity:1">
          <circle
             id="circle4846"
             r="31.934999"
             cy="31.934999"
             cx="121.535"
             style="fill:#353895;fill-opacity:1" />
        </g>
      </g>
      <g
         id="g4856"
         style="fill:#353895;fill-opacity:1">
        <g
           id="g4854"
           style="fill:#353895;fill-opacity:1">
          <path
             id="path4852"
             d="m 252.01,124.728 c -4.489,-7.229 -13.987,-9.451 -21.218,-4.963 l -31.206,19.375 c -0.13,-25.879 -0.061,-12.145 -0.144,-28.811 -0.101,-20.005 -16.458,-36.281 -36.464,-36.281 h -15.159 c -12.951,33.588 -8.779,21.12 -19.772,49.63 l 4.623,-20.131 c 0.32,-1.508 0.088,-3.08 -0.655,-4.43 l -6.264,-11.393 5.559,-10.109 c 0.829,-1.508 -0.264,-3.356 -1.985,-3.356 h -15.271 c -1.72,0 -2.815,1.848 -1.985,3.356 l 5.57,10.13 -6.276,11.414 c -0.728,1.325 -0.966,2.865 -0.672,4.347 l 4.005,20.172 C 112.537,118.079 97.612,79.372 95.559,74.048 H 80.093 c -20.005,0 -36.363,16.275 -36.464,36.281 l -0.569,113.2 c -0.042,8.51 6.821,15.443 15.331,15.486 0.027,0 0.052,0 0.079,0 8.473,0 15.364,-6.848 15.406,-15.331 l 0.569,-113.2 c 0,-0.018 0,-0.036 0,-0.053 0.024,-1.68 1.399,-3.026 3.079,-3.013 1.68,0.012 3.034,1.378 3.034,3.058 l 0.007,160.381 c 14.106,-0.6 27.176,4.488 36.981,13.423 v -62.568 h 7.983 v 71.773 c 5.623,8.268 8.914,18.243 8.914,28.974 0,9.777 -2.732,18.928 -7.469,26.731 4.866,0.023 9.592,0.669 14.099,1.861 6.076,-5.271 13.385,-9.151 21.437,-11.136 0,-279.342 -0.335,-106.627 -0.335,-229.418 0,-1.779 1.439,-3.221 3.218,-3.224 1.779,-0.004 3.224,1.432 3.232,3.211 0.054,10.807 0.224,44.59 0.283,56.351 0.028,5.579 3.07,10.708 7.953,13.407 4.874,2.694 10.835,2.554 15.583,-0.394 l 54.604,-33.903 c 7.228,-4.487 9.451,-13.988 4.962,-21.217 z"
             inkscape:connector-curvature="0"
             style="fill:#353895;fill-opacity:1" />
        </g>
      </g>
      <g
         id="g4862"
         style="fill:#353895;fill-opacity:1">
        <g
           id="g4860"
           style="fill:#353895;fill-opacity:1">
          <circle
             id="circle4858"
             r="33.803001"
             cy="322.83099"
             cx="429.22101"
             style="fill:#353895;fill-opacity:1" />
        </g>
      </g>
      <g
         id="g4868"
         style="fill:#353895;fill-opacity:1">
        <g
           id="g4866"
           style="fill:#353895;fill-opacity:1">
          <path
             id="path4864"
             d="m 511.459,405.811 c -0.107,-21.176 -17.421,-38.404 -38.598,-38.404 -9.137,0 -76.583,0 -84.781,0 3.637,7.068 5.704,15.069 5.704,23.55 0,9.005 -2.405,18.413 -7.5,26.782 18.904,0.764 35.468,10.91 45.149,25.897 h 40.579 v -37.43 c 0,-1.842 1.46,-3.352 3.301,-3.415 1.841,-0.063 3.402,1.345 3.526,3.182 0,0 0,10e-4 0,0.002 l 0.19,37.661 h 32.621 z"
             inkscape:connector-curvature="0"
             style="fill:#353895;fill-opacity:1" />
        </g>
      </g>
      <g
         id="g4874"
         style="fill:#353895;fill-opacity:1">
        <g
           id="g4872"
           style="fill:#353895;fill-opacity:1">
          <path
             id="path4870"
             d="m 290.469,390.956 c 0,-8.629 2.138,-16.763 5.894,-23.92 -22.009,0 -47.852,0 -75.267,0 3.472,6.939 5.437,14.756 5.437,23.029 0,9.721 -2.73,18.926 -7.469,26.731 15.558,0.074 29.912,6.538 40.283,17.267 10.054,-9.822 23.759,-15.914 38.836,-15.995 -5.235,-8.452 -7.714,-17.942 -7.714,-27.112 z"
             inkscape:connector-curvature="0"
             style="fill:#353895;fill-opacity:1" />
        </g>
      </g>
      <g
         id="g4880"
         style="fill:#353895;fill-opacity:1">
        <g
           id="g4878"
           style="fill:#353895;fill-opacity:1">
          <path
             id="path4876"
             d="m 264.819,288.655 c -18.668,0 -33.804,15.132 -33.804,33.803 0,18.628 15.107,33.803 33.804,33.803 18.518,0 33.803,-14.965 33.803,-33.803 0,-18.65 -15.105,-33.803 -33.803,-33.803 z"
             inkscape:connector-curvature="0"
             style="fill:#353895;fill-opacity:1" />
        </g>
      </g>
      <g
         id="g4886"
         style="fill:#353895;fill-opacity:1">
        <g
           id="g4884"
           style="fill:#353895;fill-opacity:1">
          <path
             id="path4882"
             d="m 123.217,390.065 c 0,-8.252 1.956,-16.053 5.411,-22.98 -1.457,-0.072 4.672,-0.049 -89.485,-0.049 -21.068,0 -38.491,17.138 -38.598,38.404 l -0.192,38.196 c 14.907,0 17.906,0 32.621,0 l 0.191,-38.031 c 0.01,-1.884 1.541,-3.402 3.423,-3.397 1.882,0.006 3.404,1.532 3.404,3.414 v 38.014 h 45.727 c 9.855,-15.754 26.8,-25.646 45.243,-26.406 -5.006,-8.062 -7.745,-17.365 -7.745,-27.165 z"
             inkscape:connector-curvature="0"
             style="fill:#353895;fill-opacity:1" />
        </g>
      </g>
      <g
         id="g4892"
         style="fill:#353895;fill-opacity:1">
        <g
           id="g4890"
           style="fill:#353895;fill-opacity:1">
          <path
             id="path4888"
             d="m 82.786,288.655 c -18.668,0 -33.803,15.134 -33.803,33.803 0,18.584 15.046,33.803 33.803,33.803 18.536,0 33.804,-15.015 33.804,-33.803 0,-18.67 -15.135,-33.803 -33.804,-33.803 z"
             inkscape:connector-curvature="0"
             style="fill:#353895;fill-opacity:1" />
        </g>
      </g>
      <g
         id="g4898"
         style="fill:#353895;fill-opacity:1">
        <g
           id="g4896"
           style="fill:#353895;fill-opacity:1">
          <path
             id="path4894"
             d="m 422.533,473.807 c -0.105,-21.178 -17.42,-38.406 -38.597,-38.406 -2.246,0 -82.969,0 -85.507,0 -21.176,0 -39.601,17.227 -39.708,38.404 l -0.275,-0.891 c -0.105,-21.092 -17.341,-38.404 -38.597,-38.404 -24.544,0 -59.795,0 -85.507,0 -21.176,0 -39.601,17.227 -39.708,38.404 L 94.442,512 h 32.621 l 0.191,-38.922 c 0.008,-1.622 1.327,-2.93 2.948,-2.926 1.621,0.004 2.932,1.32 2.932,2.941 v 38.908 c 19.121,0 68.483,0 86.392,0 v -38.908 c 0,-1.736 1.405,-3.144 3.141,-3.149 1.735,-0.004 3.149,1.397 3.158,3.133 L 226.016,512 c 6.669,0 58.238,0 65.134,0 l 0.191,-38.031 c 0,0 0,-10e-4 0,-0.002 0.009,-1.621 1.328,-2.928 2.949,-2.924 1.621,0.004 2.931,1.32 2.931,2.941 V 512 c 19.121,0 68.483,0 86.392,0 v -38.016 c 0,-1.736 1.405,-3.144 3.141,-3.149 1.735,-0.004 3.149,1.397 3.158,3.133 l 0.191,38.031 h 32.621 z"
             inkscape:connector-curvature="0"
             style="fill:#353895;fill-opacity:1" />
        </g>
      </g>
      <g
         id="g4904"
         style="fill:#353895;fill-opacity:1">
        <g
           id="g4902"
           style="fill:#353895;fill-opacity:1">
          <circle
             id="circle4900"
             r="34.198002"
             cy="389.93301"
             cx="175.93401"
             style="fill:#353895;fill-opacity:1" />
        </g>
      </g>
      <g
         id="g4910"
         style="fill:#353895;fill-opacity:1">
        <g
           id="g4908"
           style="fill:#353895;fill-opacity:1">
          <circle
             id="circle4906"
             r="34.198002"
             cy="390.82101"
             cx="342.07001"
             style="fill:#353895;fill-opacity:1" />
        </g>
      </g>
      <g
         id="g4912"
         style="fill:#353895;fill-opacity:1" />
      <g
         id="g4914"
         style="fill:#353895;fill-opacity:1" />
      <g
         id="g4916"
         style="fill:#353895;fill-opacity:1" />
      <g
         id="g4918"
         style="fill:#353895;fill-opacity:1" />
      <g
         id="g4920"
         style="fill:#353895;fill-opacity:1" />
      <g
         id="g4922"
         style="fill:#353895;fill-opacity:1" />
      <g
         id="g4924"
         style="fill:#353895;fill-opacity:1" />
      <g
         id="g4926"
         style="fill:#353895;fill-opacity:1" />
      <g
         id="g4928"
         style="fill:#353895;fill-opacity:1" />
      <g
         id="g4930"
         style="fill:#353895;fill-opacity:1" />
      <g
         id="g4932"
         style="fill:#353895;fill-opacity:1" />
      <g
         id="g4934"
         style="fill:#353895;fill-opacity:1" />
      <g
         id="g4936"
         style="fill:#353895;fill-opacity:1" />
      <g
         id="g4938"
         style="fill:#353895;fill-opacity:1" />
      <g
         id="g4940"
         style="fill:#353895;fill-opacity:1" />
    </g>
  </g>
</svg>
